<?xml version="1.0" encoding="UTF-8"?>
<svg id="_레이어_1" data-name="레이어 1" xmlns="http://www.w3.org/2000/svg" viewBox="0 0 2563.82 1401.46">
  <defs>
    <style>
      .cls-1 {
        fill: #efdab3;
      }

      .cls-2 {
        fill: #afad89;
      }

      .cls-3 {
        fill: #a4a082;
      }

      .cls-4 {
        fill: #f7d4b5;
      }

      .cls-5 {
        fill: #ce9b84;
      }

      .cls-6 {
        fill: #b86a6a;
      }

      .cls-7 {
        fill: #040000;
      }

      .cls-8 {
        fill: #de9fa3;
      }

      .cls-9 {
        fill: #74c4ba;
      }

      .cls-10 {
        opacity: .7;
      }

      .cls-10, .cls-11, .cls-12, .cls-13, .cls-14 {
        fill: #231815;
      }

      .cls-15, .cls-16 {
        stroke: #231815;
      }

      .cls-15, .cls-16, .cls-17, .cls-18 {
        fill: none;
      }

      .cls-15, .cls-16, .cls-18 {
        stroke-miterlimit: 10;
      }

      .cls-15, .cls-18 {
        stroke-width: .78px;
      }

      .cls-19 {
        fill: #bebd97;
      }

      .cls-16 {
        stroke-width: .93px;
      }

      .cls-20 {
        fill: #3c2632;
      }

      .cls-21, .cls-22, .cls-23 {
        fill: #fff;
      }

      .cls-11 {
        font-size: 168px;
        letter-spacing: 0em;
      }

      .cls-11, .cls-12 {
        font-family: H2sa1M, HYShortSamul-Medium;
      }

      .cls-22 {
        opacity: .5;
      }

      .cls-24 {
        fill: #484947;
      }

      .cls-25 {
        fill: #88a97b;
      }

      .cls-26 {
        fill: #aec99a;
      }

      .cls-27 {
        fill: #ecc08f;
      }

      .cls-28 {
        fill: #f7c3c6;
      }

      .cls-29 {
        fill: #80667c;
      }

      .cls-30 {
        fill: #b4b28a;
      }

      .cls-31 {
        fill: #594c56;
      }

      .cls-32 {
        fill: #e8ac67;
      }

      .cls-33 {
        fill: #cbb491;
      }

      .cls-34 {
        fill: #c66c71;
      }

      .cls-35 {
        fill: #dbcac0;
      }

      .cls-12 {
        font-size: 64px;
      }

      .cls-36 {
        fill: #d1d19d;
      }

      .cls-13 {
        opacity: .3;
      }

      .cls-37 {
        fill: #658433;
      }

      .cls-38 {
        fill: #9b9b9b;
      }

      .cls-39 {
        fill: #f09194;
      }

      .cls-40 {
        fill: #edba38;
      }

      .cls-41 {
        fill: #9acb72;
      }

      .cls-42 {
        fill: #313232;
      }

      .cls-43 {
        fill: #5fa99d;
      }

      .cls-44 {
        fill: #c3932c;
      }

      .cls-45 {
        fill: #955333;
      }

      .cls-46 {
        fill: #bfe2dc;
      }

      .cls-47 {
        fill: #74b9e0;
      }

      .cls-48 {
        opacity: .86;
      }

      .cls-49 {
        fill: #a2d4cc;
      }

      .cls-50 {
        fill: #31322b;
      }

      .cls-51 {
        fill: #4d5048;
      }

      .cls-52 {
        fill: #696c58;
      }

      .cls-53 {
        fill: #d27273;
      }

      .cls-23 {
        opacity: .6;
      }

      .cls-54 {
        fill: #9f9f9f;
      }

      .cls-18 {
        stroke: #9ba4d2;
      }

      .cls-55 {
        fill: #f2e7d2;
      }

      .cls-56 {
        fill: #8b4937;
      }

      .cls-57 {
        fill: #515150;
      }

      .cls-58 {
        fill: #5b7868;
      }

      .cls-59 {
        fill: #453f44;
      }

      .cls-60 {
        fill: #75a8c7;
      }

      .cls-61 {
        fill: #6a6a6a;
      }
    </style>
  </defs>
  <rect class="cls-21" width="2560" height="1400"/>
  <rect class="cls-46" width="2560" height="990.82"/>
  <path class="cls-24" d="M80.96,889.4c2.82-9.63,3.27-19.96,1.28-29.8,4.48.55,8.51,3.8,10.01,8.05,4.38-1.09,5.43-7.11,3.85-11.35-1.57-4.23-4.78-7.8-5.83-12.19-.68-2.82-.77-6.37-3.35-7.69-2.5-1.27-6.02.47-8.13-1.38-1.09-.95-1.35-2.52-1.53-3.96-.54-4.12-1.07-8.23-1.61-12.35,4.76,3.09,9.53,6.18,14.29,9.26,1.26.81,2.58,1.65,4.08,1.76,2.81.2,5.21-2.37,5.82-5.12s-.1-5.6-.81-8.33c-7.36,1.91-15.17-6.36-12.85-13.6,1.31-4.07,4.58-9.42.94-11.64-2.99-1.82-7.5,1.55-10.13-.76-.89-.77-1.23-1.98-1.47-3.14-1.06-5.14-.72-10.57.98-15.54,5.87,3.27,11.75,6.55,17.62,9.82.28-5.27.55-10.54.83-15.81-6.49-.06-12.99,1.35-18.86,4.11-1.05-12.32-.58-24.77,1.42-36.97,4.87-1.47,9.76,1.73,14.64,3.16s12.05-.95,11.29-5.98c-7.63,1.8-16.15-4.09-17.18-11.86-4.54,1.42-8.9,3.38-12.99,5.81-2.12-8.68-.32-18.24,4.82-25.55,2.99,2.18,6.13,4.41,9.78,5.01,3.65.6,7.95-1.01,9.16-4.5,1.38-3.98-1.72-8.15-5.2-10.52-3.48-2.37-7.65-3.98-10.18-7.35-2.24-2.98-2.84-6.87-2.98-10.59-.3-8,1.18-16.06,4.3-23.43.57-1.33,1.2-2.69,1.23-4.14.04-1.85-.9-3.56-1.82-5.17-3.83-6.74-7.55-12.32-11.38-19.07,4.58,8.06,1.27,19.68,7.83,26.23-3.92,7.14-5.87,15.35-5.6,23.49-3.43,2.21-8-4.98-11.16-2.39-.81.66-1.09,1.76-1.26,2.79-.55,3.27-.42,6.66.37,9.88,4.5.89,9.28.36,13.48-1.49,1.24,3.07,1.54,6.53.83,9.76-7.09-2.96-16.28,1.52-18.33,8.93,3.59,2.37,9.21-.85,12.43,2,1.43,1.27,1.81,3.32,2.11,5.21.94,6,1.87,12,2.81,18-8.03,1.87-16.11,3.52-24.24,4.94.6,4.72,4.01,8.96,8.49,10.56,4.48,1.6,9.81.47,13.26-2.79-1.16,5.49,5.59,11.67,2.05,16.03-.94,1.16-2.4,1.75-3.77,2.37-7.67,3.49-14.2,9.46-18.37,16.78-.7,1.96-1.39,3.93-2.09,5.89,4.5,1.25,9.16,1.95,13.83,2.1.88-1.42,1.76-2.83,2.63-4.25,5.08,2.43,7.81,8.92,5.98,14.25-1.61,4.71-5.97,7.83-10.08,10.63-5.39,3.67-10.96,7.43-17.33,8.81-3.41.74-7.34.97-9.57,3.66-3.08,3.71-.32,9.92,4.17,11.65,4.5,1.73,9.61.15,13.79-2.25,4.18-2.4,7.9-5.61,12.33-7.5,2.05,3.73,4.09,7.45,6.14,11.18.79,1.44,1.6,2.94,1.72,4.58.35,4.75-4.81,7.78-9.15,9.74-4.34,1.96-9.38,5.39-8.54,10.08-7.91,1.42-15.43,5-21.52,10.25,10.93,2.2,22.32,2.08,33.2-.34,2.01-.45,4.57-.76,5.69.96.49.75.53,1.7.54,2.6.19,10.72-.93,21.46-3.33,31.9-.97,1.12-2.95,1.12-3.91,0"/>
  <g>
    <path class="cls-4" d="M1999.6,392.09c42.61-4.69,35.37-43.25,35.37-43.25-35.37,44.96-255.88,206.15-255.88,206.15,0,0,54.51,68.53,54.51,70.23,0,.67,86.25-122.19,139.18-121,144.48-60.87,26.82-112.13,26.82-112.13Z"/>
    <path class="cls-31" d="M2193.06,476.46l-158.09-127.62s7.24,38.56-35.37,43.25c0,0,117.66,51.26-26.82,112.13,82.73,1.87,188.74,3.77,188.74,3.77l31.53-31.53Z"/>
    <path class="cls-4" d="M2305.13,281.3c-26.42,59.23-178.61,141.45-178.61,141.45l6.88,73.74,22.83,24.51h0c137.03-36.85,148.89-239.7,148.89-239.7Z"/>
    <path class="cls-31" d="M2305.13,281.3s-11.86,202.85-148.89,239.7h0l23.61,25.35,254.39-33.24,30.07-20.45c3.84-40.48-159.18-211.36-159.18-211.36Z"/>
    <g>
      <path class="cls-59" d="M2364.77,470.54l.24-1.32c-.11.43-.19.87-.24,1.32Z"/>
      <path class="cls-59" d="M2468.36,493.37c-1.35.6-2.78.44-4.05-.71-1.24-1.13-2.28-2.98-3.44-4.41-1.71-2.09-3.67-3.21-5.6-4.31-8.11-4.6-16.88-9.18-24.78-3.29-2.2,1.64-5.18,3.61-6.46-.32-.27-.82-.4-1.8-.69-2.59-.91-2.52-2.87-2.09-4.26-.72-1.4,1.37-2.72,3.45-4.27,3.48-1.55.03-3.11-3.74-2.1-6.1-2.02-3.98-4.73,5.55-7.53,4.76-.85-.24-1.54-1.44-2.22-2.5-3.22-4.98-7.19-7.57-10.64-11.87-3.45-4.3-6.57-11.41-6.28-19.54-2.31,9.99-5.45,19.2-9.26,27.14-2,4.17-4.46,8.23-7.34,8.25-2.64.02-5.25-5.28-4.64-10.1-1.02,5.5-2.03,11.01-3.05,16.51-4.69,2.84-10.08.38-13.69-6.25-1.63-2.19-3.24,2.63-4.73,5.17-1.95,3.31-4.8,2.82-7.35,3.11-2.55.28-5.6,2.62-5.9,7.71-4.88-7.32-10.61-12.34-16.6-14.55-5.13-1.89-11.26-2.72-13.98-11.65-.39,6.3-4.26,8.77-7.42,9.28-3.16.51-6.95,1.24-8.37,6.92-.53-5.53-4.45-5.29-7.23-4.6-7.06,1.75-14.45-3.18-19.58-13.05-3.69,6.41-9.21,4.86-14.07,4.15-4.87-.71-10.87,1.26-12.59,10.42-2.64-6.92-5.73-13.14-9.17-18.46-3.48,3.4-9.7-4.45-12.28-10.24-9.42,13.9-21.04,21.7-32.73,21.98-2.45,3.11-4.91,6.22-7.36,9.33-10.4,12.48-24.88,9.14-33.6-7.75-2.53,3.89-5.06,7.78-7.6,11.67-3.05-22.59-13.09-40.73-24.61-44.49,2.43,12.99,4.86,25.99,7.3,38.98-3.41-5.6-9.55-.31-9.87,8.5-3.61.95-7.43-2.53-9.44-8.62-10.1-6.54-21.14-7.1-31.39-1.6-1.56-4.06-4.47-5.79-6.88-4.07-.23-6.11-.47-12.23-.7-18.34-1.81,8.8-3.63,17.59-5.44,26.39-15.88-8.97-35.33,25-47.7,3.12.41,11.81-10.35,15.11-11.72,3.6-3.38,4.86-6.76,9.73-10.14,14.59-3.58-20.16-15.18-33.11-25.61-28.62-3.81,1.64-10.23-.48-8.38-7.35-3.57,14.96-14.26,13.19-22.38,10.07-8.12-3.12-19.34-1.29-20.95,14.97-1.31-5.88-2.62-11.76-3.92-17.64-3.85,3.3-7.69,6.6-11.54,9.89-1.55-5.81-3.11-11.62-4.67-17.44-9.5,6.08-19.01,12.15-28.51,18.23-3.25-14.67-32.51,16.28-36.17,30.56-3.66,14.28-47.12,34.14-43.39,48.34,17.34,66.04,118.55,68.03,154.6,86.6,55.71,28.7,113.52,39,171.03,37.3,53.78-1.59,107.33-13.55,160.78-25.5,46.72-10.44,93.59-20.94,139.32-42.76,18.48-8.82,36.78-19.5,54.25-34.45,5.82-4.98,11.59-10.73,17.04-17.39v-79.77Z"/>
    </g>
  </g>
  <path class="cls-24" d="M248.12,887.34c4.19-14.28,4.84-29.58,1.9-44.16,6.63.82,12.62,5.62,14.84,11.93,6.49-1.62,8.04-10.54,5.71-16.82-2.33-6.27-7.08-11.55-8.64-18.06-1.01-4.18-1.13-9.44-4.97-11.39-3.71-1.88-8.92.7-12.05-2.04-1.62-1.41-1.99-3.74-2.27-5.87-.79-6.1-1.59-12.2-2.38-18.3,7.06,4.58,14.12,9.15,21.18,13.73,1.86,1.21,3.83,2.45,6.04,2.61,4.17.3,7.72-3.52,8.63-7.59s-.15-8.3-1.2-12.34c-10.9,2.83-22.49-9.43-19.04-20.16,1.94-6.03,6.79-13.96,1.39-17.26-4.43-2.7-11.11,2.29-15.01-1.12-1.31-1.15-1.83-2.94-2.18-4.65-1.57-7.62-1.06-15.66,1.45-23.03,8.71,4.85,17.41,9.7,26.12,14.56.41-7.81.82-15.62,1.23-23.44-9.62-.09-19.25,2.01-27.95,6.09-1.56-18.26-.85-36.71,2.1-54.79,7.22-2.17,14.46,2.57,21.69,4.68,7.23,2.11,17.85-1.41,16.72-8.86-11.31,2.66-23.94-6.06-25.45-17.58-6.72,2.11-13.2,5-19.25,8.61-3.14-12.86-.47-27.03,7.14-37.87,4.44,3.22,9.09,6.54,14.5,7.43s11.78-1.5,13.58-6.68c2.05-5.9-2.55-12.07-7.71-15.59-5.16-3.52-11.33-5.91-15.09-10.89-3.32-4.41-4.21-10.18-4.42-15.7-.45-11.86,1.74-23.81,6.38-34.73.84-1.98,1.77-3.99,1.82-6.14.06-2.74-1.34-5.28-2.69-7.67-5.67-9.99-11.19-18.26-16.86-28.26,6.79,11.94,1.88,29.16,11.6,38.87-5.8,10.59-8.7,22.74-8.3,34.81-5.09,3.27-11.86-7.38-16.53-3.54-1.19.98-1.61,2.6-1.87,4.13-.81,4.85-.62,9.87.55,14.64,6.67,1.32,13.75.54,19.98-2.2,1.84,4.56,2.28,9.67,1.23,14.47-10.51-4.38-24.13,2.25-27.16,13.23,5.33,3.51,13.65-1.27,18.42,2.97,2.12,1.88,2.68,4.92,3.12,7.73,1.39,8.89,2.77,17.78,4.16,26.68-11.9,2.77-23.88,5.21-35.92,7.32.89,6.99,5.95,13.28,12.58,15.65,6.63,2.37,14.53.7,19.65-4.14-1.72,8.14,8.28,17.29,3.04,23.76-1.4,1.73-3.56,2.6-5.58,3.52-11.37,5.18-21.04,14.01-27.22,24.87-1.03,2.91-2.07,5.82-3.1,8.74,6.68,1.85,13.57,2.89,20.5,3.11,1.3-2.1,2.6-4.2,3.9-6.29,7.53,3.6,11.57,13.22,8.86,21.12-2.39,6.97-8.85,11.6-14.94,15.75-7.99,5.45-16.24,11.01-25.69,13.06-5.05,1.1-10.88,1.44-14.18,5.42-4.56,5.49-.48,14.7,6.19,17.27,6.66,2.57,14.25.22,20.44-3.33,6.19-3.56,11.71-8.31,18.28-11.12,3.03,5.52,6.07,11.04,9.1,16.56,1.17,2.13,2.37,4.35,2.55,6.78.51,7.04-7.13,11.53-13.57,14.43-6.43,2.91-13.91,7.99-12.66,14.94-11.73,2.11-22.86,7.41-31.89,15.18,16.2,3.26,33.08,3.09,49.21-.5,2.97-.66,6.77-1.13,8.43,1.43.72,1.11.78,2.52.8,3.85.28,15.88-1.38,31.8-4.94,47.28-1.43,1.66-4.37,1.66-5.8,0"/>
  <path class="cls-24" d="M400,802c4.19-14.28,4.84-29.58,1.9-44.16,6.63.82,12.62,5.62,14.84,11.93,6.49-1.62,8.04-10.54,5.71-16.82-2.33-6.27-7.08-11.55-8.64-18.06-1.01-4.18-1.13-9.44-4.97-11.39-3.71-1.88-8.92.7-12.05-2.04-1.62-1.41-1.99-3.74-2.27-5.87-.79-6.1-1.59-12.2-2.38-18.3,7.06,4.58,14.12,9.15,21.18,13.73,1.86,1.21,3.83,2.45,6.04,2.61,4.17.3,7.72-3.52,8.63-7.59.91-4.08-.15-8.3-1.2-12.34-10.9,2.83-22.49-9.43-19.04-20.16,1.94-6.03,6.79-13.96,1.39-17.26-4.43-2.7-11.11,2.29-15.01-1.12-1.31-1.15-1.83-2.94-2.18-4.65-1.57-7.62-1.06-15.66,1.45-23.03,8.71,4.85,17.41,9.7,26.12,14.56.41-7.81.82-15.62,1.23-23.44-9.62-.09-19.25,2.01-27.95,6.09-1.56-18.26-.85-36.71,2.1-54.79,7.22-2.17,14.46,2.57,21.69,4.68,7.23,2.11,17.85-1.41,16.72-8.86-11.31,2.66-23.94-6.06-25.45-17.58-6.72,2.11-13.2,5-19.25,8.61-3.14-12.86-.47-27.03,7.14-37.87,4.44,3.22,9.09,6.54,14.5,7.43s11.78-1.5,13.58-6.68c2.05-5.9-2.55-12.07-7.71-15.59-5.16-3.52-11.33-5.91-15.09-10.89-3.32-4.41-4.21-10.18-4.42-15.7-.45-11.86,1.74-23.81,6.38-34.73.84-1.98,1.77-3.99,1.82-6.14.06-2.74-1.34-5.28-2.69-7.67-5.67-9.99-11.19-18.26-16.86-28.26,6.79,11.94,1.88,29.16,11.6,38.87-5.8,10.59-8.7,22.74-8.3,34.81-5.09,3.27-11.86-7.38-16.53-3.54-1.19.98-1.61,2.6-1.87,4.13-.81,4.85-.62,9.87.55,14.64,6.67,1.32,13.75.54,19.98-2.2,1.84,4.56,2.28,9.67,1.23,14.47-10.51-4.38-24.13,2.25-27.16,13.23,5.33,3.51,13.65-1.27,18.42,2.97,2.12,1.88,2.68,4.92,3.12,7.73,1.39,8.89,2.77,17.78,4.16,26.68-11.9,2.77-23.88,5.21-35.92,7.32.89,6.99,5.95,13.28,12.58,15.65,6.63,2.37,14.53.7,19.65-4.14-1.72,8.14,8.28,17.29,3.04,23.76-1.4,1.73-3.56,2.6-5.58,3.52-11.37,5.18-21.04,14.01-27.22,24.87-1.03,2.91-2.07,5.82-3.1,8.74,6.68,1.85,13.57,2.89,20.5,3.11,1.3-2.1,2.6-4.2,3.9-6.29,7.53,3.6,11.57,13.22,8.86,21.12-2.39,6.97-8.85,11.6-14.94,15.75-7.99,5.45-16.24,11.01-25.69,13.06-5.05,1.1-10.88,1.44-14.18,5.42-4.56,5.49-.48,14.7,6.19,17.27,6.66,2.57,14.25.22,20.44-3.33s11.71-8.31,18.28-11.12c3.03,5.52,6.07,11.04,9.1,16.56,1.17,2.13,2.37,4.35,2.55,6.78.51,7.04-7.13,11.53-13.57,14.43-6.43,2.91-13.91,7.99-12.66,14.94-11.73,2.11-22.86,7.41-31.89,15.18,16.2,3.26,33.08,3.09,49.21-.5,2.97-.66,6.77-1.13,8.43,1.43.72,1.11.78,2.52.8,3.85.28,15.88-1.38,31.8-4.94,47.28-1.43,1.66-4.37,1.66-5.8,0"/>
  <path class="cls-51" d="M144.71,855.69c-2.83-4.46-4.5-10.01-4.7-15.65-2.94,5.65-6.97,10.45-11.67,13.92-8.19-5.36-12.1-18.74-8.53-29.2,10.57-2.33,21.38-5.95,29.54-14.46,8.15-8.51,12.89-23.08,8.67-35.11-5.43-4.12-13.6-1.04-16.16,6.1-5.93-5.5-8.71-15.57-6.71-24.32,5.12-.42,10.09-3.15,13.75-7.53,7.36,6.51,19.66-.13,20.65-11.14-3.12-8.85-6.23-17.7-9.35-26.55,2.09,10.09-8.09,20.34-15.84,15.94-5.82-3.31-8.31-12.2-7.44-19.95.87-7.75,4.37-14.64,7.78-21.27,2.21,1.04,4.43,2.07,6.64,3.11,4.71-5.36,6.18-14.51,3.47-21.64-5.62,5.38-10.09,12.51-12.86,20.53-2.97-4.83-4.59-10.88-4.53-16.92,11.92-11.21,20.15-28.07,22.55-46.17-8.67-7.4-17.35-14.8-26.02-22.19-1.22-1.04-2.54-2.26-2.83-4.04-.21-1.27.16-2.58.59-3.77,2.24-6.23,6.3-11.46,11.27-14.53,5.37,4.56,13.32,0,16.33-7.07,3.01-7.08,2.5-15.52,1.92-23.46-3.79,2.17-6.98,5.88-8.95,10.39-3.93-7.3-5.8-16.2-5.24-24.9-5.43,1.05-11.35,2.01-16.14-1.29-4.79-3.3-6.82-12.78-2.3-16.6,3.33,1.23,6.66,2.46,10,3.69.53-8.53,6.36-14.88,11.03-21.27s8.61-15.83,4.96-23.14c-5.86,1.14-11.44,4.38-15.86,9.2.87-7.95,1.75-15.91,2.62-23.86,6.17,3.87,14.09-1.06,17.57-8.37,3.48-7.32,3.7-16.19,3.82-24.64-1.44,14.22-1.72,28.62-.84,42.91,4.53-3.12,9.74,4.08,9.55,10.42-.2,6.34-3.22,12.08-3.87,18.38-1.12,10.84,4.88,21.19,4.43,32.1-.09,2.27-.45,4.65.31,6.72.83,2.26,2.75,3.55,4.56,4.69,6.09,3.83,12.18,7.67,18.27,11.5-3.96-.36-8.85-.12-10.66,4.19-.71,1.69-.76,3.71-1.45,5.41-1.25,3.08-4.22,4.39-6.49,6.44-6.33,5.73-6.79,17.66-3.17,26.2,3.62,8.54,10.24,14.47,16.63,20.1-8.29.62-11.12,13.97-10.13,24.02,1.38,14.02,5.76,27.59,12.6,39.01-7.85,2.59-16.52,1.34-23.65-3.43-5.4-3.61-12.21-9.09-16.85-4.17-3.7,3.92-2.28,11.4.53,16.3,7.62,13.26,24.74,17.72,34.93,7.33,2.82,5.51,4.48,11.89,4.79,18.37-9.08,2.04-15.81,12.1-18.43,22.89-2.62,10.79-1.92,22.3-1.2,33.52,7.8-.18,15.6.17,23.37,1.07,2.01,6.44-5.73,10.08-10.98,12.65-9.27,4.52-15.37,17.16-14.1,29.22,1.66.25,3.32.49,4.98.74,2.5.37-3.71,31.9-4.64,34.71-1.49-19.19-22.95-7.16-26.5,4.88Z"/>
  <path class="cls-51" d="M331.12,835.57c-2.9-3.74-4.6-8.4-4.8-13.13-3.01,4.74-7.12,8.77-11.92,11.68-8.37-4.5-12.37-15.73-8.71-24.5,10.8-1.96,21.85-4.99,30.19-12.14s13.17-19.37,8.86-29.46c-5.55-3.46-13.9-.87-16.52,5.12-6.06-4.62-8.9-13.06-6.86-20.4,5.23-.36,10.31-2.64,14.05-6.32,7.52,5.46,20.09-.11,21.1-9.35-3.19-7.43-6.37-14.85-9.56-22.28,2.14,8.47-8.27,17.07-16.18,13.38-5.95-2.78-8.49-10.24-7.6-16.74s4.46-12.28,7.95-17.84c2.26.87,4.52,1.74,6.78,2.61,4.81-4.5,6.31-12.18,3.55-18.16-5.74,4.51-10.31,10.5-13.14,17.23-3.04-4.06-4.69-9.13-4.63-14.19,12.18-9.4,20.59-23.55,23.05-38.74-8.86-6.21-17.73-12.42-26.59-18.62-1.25-.87-2.6-1.89-2.9-3.39-.21-1.07.16-2.16.6-3.16,2.29-5.22,6.43-9.61,11.52-12.19,5.49,3.83,13.62,0,16.69-5.93,3.08-5.94,2.56-13.02,1.96-19.68-3.88,1.83-7.14,4.93-9.14,8.72-4.01-6.12-5.93-13.59-5.35-20.89-5.55.88-11.6,1.69-16.49-1.08-4.89-2.77-6.96-10.72-2.35-13.93,3.41,1.03,6.81,2.07,10.22,3.1.54-7.16,6.5-12.49,11.27-17.85,4.78-5.36,8.8-13.28,5.07-19.42-5.99.96-11.69,3.68-16.21,7.72.89-6.67,1.79-13.35,2.68-20.02,6.31,3.25,14.4-.89,17.95-7.02,3.56-6.14,3.78-13.58,3.9-20.68-1.47,11.93-1.76,24.01-.86,36,4.63-2.62,9.96,3.43,9.76,8.74s-3.29,10.14-3.96,15.42c-1.15,9.09,4.98,17.78,4.52,26.94-.1,1.9-.46,3.9.31,5.64.84,1.89,2.82,2.98,4.66,3.93,6.22,3.22,12.45,6.44,18.67,9.65-4.05-.3-9.04-.1-10.89,3.51-.73,1.42-.77,3.11-1.48,4.54-1.28,2.59-4.31,3.68-6.63,5.4-6.47,4.81-6.94,14.82-3.24,21.98,3.7,7.16,10.46,12.14,17,16.86-8.48.52-11.36,11.72-10.35,20.16,1.41,11.77,5.89,23.15,12.87,32.73-8.03,2.18-16.88,1.12-24.17-2.88-5.51-3.03-12.47-7.63-17.22-3.5-3.78,3.29-2.33,9.57.54,13.67,7.78,11.13,25.29,14.87,35.69,6.15,2.88,4.62,4.58,9.98,4.89,15.42-9.28,1.72-16.16,10.16-18.84,19.21-2.68,9.05-1.96,18.71-1.22,28.12,7.97-.15,15.95.15,23.88.89,2.05,5.41-5.86,8.46-11.22,10.61-9.47,3.8-15.7,14.4-14.41,24.52,1.7.21,3.39.41,5.09.62,2.56.31-3.79,26.76-4.74,29.12-1.52-16.1-23.46-6.01-27.08,4.09Z"/>
  <path class="cls-51" d="M268.56,763.35c-2.9-3.74-4.6-8.4-4.8-13.13-3.01,4.74-7.12,8.77-11.92,11.68-8.37-4.5-12.37-15.73-8.71-24.5,10.8-1.96,21.85-4.99,30.19-12.14,8.33-7.14,13.17-19.37,8.86-29.46-5.55-3.46-13.9-.87-16.52,5.12-6.06-4.62-8.9-13.06-6.86-20.4,5.23-.36,10.31-2.64,14.05-6.32,7.52,5.46,20.09-.11,21.1-9.35-3.19-7.43-6.37-14.85-9.56-22.28,2.14,8.47-8.27,17.07-16.18,13.38-5.95-2.78-8.49-10.24-7.6-16.74s4.46-12.28,7.95-17.84c2.26.87,4.52,1.74,6.78,2.61,4.81-4.5,6.31-12.18,3.55-18.16-5.74,4.51-10.31,10.5-13.14,17.23-3.04-4.06-4.69-9.13-4.63-14.19,12.18-9.4,20.59-23.55,23.05-38.74-8.86-6.21-17.73-12.42-26.59-18.62-1.25-.87-2.6-1.89-2.9-3.39-.21-1.07.16-2.16.6-3.16,2.29-5.22,6.43-9.61,11.52-12.19,5.49,3.83,13.62,0,16.69-5.93,3.08-5.94,2.56-13.02,1.96-19.68-3.88,1.83-7.14,4.93-9.14,8.72-4.01-6.12-5.93-13.59-5.35-20.89-5.55.88-11.6,1.69-16.49-1.08s-6.96-10.72-2.35-13.93c3.41,1.03,6.81,2.07,10.22,3.1.54-7.16,6.5-12.49,11.27-17.85s8.8-13.28,5.07-19.42c-5.99.96-11.69,3.68-16.21,7.72.89-6.67,1.79-13.35,2.68-20.02,6.31,3.25,14.4-.89,17.95-7.02s3.78-13.58,3.9-20.68c-1.47,11.93-1.76,24.01-.86,36,4.63-2.62,9.96,3.43,9.76,8.74-.2,5.32-3.29,10.14-3.96,15.42-1.15,9.09,4.98,17.78,4.52,26.94-.1,1.9-.46,3.9.31,5.64.84,1.89,2.82,2.98,4.66,3.93,6.22,3.22,12.45,6.44,18.67,9.65-4.05-.3-9.04-.1-10.89,3.51-.73,1.42-.77,3.11-1.48,4.54-1.28,2.59-4.31,3.68-6.63,5.4-6.47,4.81-6.94,14.82-3.24,21.98,3.7,7.16,10.46,12.14,17,16.86-8.48.52-11.36,11.72-10.35,20.16,1.41,11.77,5.89,23.15,12.87,32.73-8.03,2.18-16.88,1.12-24.17-2.88-5.51-3.03-12.47-7.63-17.22-3.5-3.78,3.29-2.33,9.57.54,13.67,7.78,11.13,25.29,14.87,35.69,6.15,2.88,4.62,4.58,9.98,4.89,15.42-9.28,1.72-16.16,10.16-18.84,19.21-2.68,9.05-1.96,18.71-1.22,28.12,7.97-.15,15.95.15,23.88.89,2.05,5.41-5.86,8.46-11.22,10.61-9.47,3.8-15.7,14.4-14.41,24.52,1.7.21,3.39.41,5.09.62,2.56.31-3.79,26.76-4.74,29.12-1.52-16.1-23.46-6.01-27.08,4.09Z"/>
  <path class="cls-24" d="M769.2,888.64c-3.06-11.35-3.54-23.51-1.39-35.11-4.84.65-9.21,4.47-10.83,9.48-4.74-1.29-5.87-8.38-4.17-13.37s5.17-9.19,6.31-14.36c.73-3.32.83-7.51,3.63-9.06,2.71-1.5,6.51.56,8.79-1.62,1.18-1.12,1.46-2.97,1.66-4.66.58-4.85,1.16-9.7,1.74-14.55-5.15,3.64-10.31,7.27-15.46,10.91-1.36.96-2.79,1.95-4.41,2.07-3.04.24-5.63-2.8-6.3-6.04-.66-3.24.11-6.6.87-9.81,7.96,2.25,16.42-7.5,13.9-16.02-1.41-4.79-4.96-11.1-1.01-13.72,3.23-2.14,8.11,1.82,10.96-.89.96-.91,1.33-2.34,1.59-3.69,1.14-6.06.77-12.45-1.06-18.31-6.35,3.86-12.71,7.71-19.06,11.57-.3-6.21-.6-12.42-.9-18.63,7.02-.08,14.05,1.59,20.4,4.85,1.14-14.51.62-29.18-1.53-43.56-5.27-1.73-10.56,2.04-15.84,3.72-5.28,1.68-13.03-1.12-12.21-7.04,8.25,2.12,17.47-4.82,18.58-13.98,4.91,1.67,9.63,3.98,14.05,6.84,2.3-10.23.34-21.49-5.21-30.1-3.24,2.56-6.63,5.2-10.58,5.9s-8.6-1.19-9.91-5.31c-1.49-4.69,1.86-9.6,5.63-12.39,3.77-2.79,8.27-4.69,11.01-8.66,2.43-3.51,3.07-8.09,3.23-12.48.33-9.43-1.27-18.93-4.66-27.61-.61-1.57-1.3-3.17-1.33-4.88-.04-2.18.98-4.2,1.96-6.09,4.14-7.95,8.17-14.52,12.31-22.47-4.96,9.5-1.37,23.18-8.47,30.9,4.24,8.42,6.35,18.08,6.06,27.67,3.71,2.6,8.66-5.86,12.07-2.81.87.78,1.18,2.07,1.36,3.28.59,3.86.45,7.84-.4,11.64-4.87,1.05-10.04.43-14.58-1.75-1.35,3.62-1.66,7.69-.9,11.5,7.67-3.48,17.62,1.79,19.83,10.52-3.89,2.79-9.96-1.01-13.44,2.36-1.55,1.5-1.96,3.91-2.28,6.14-1.01,7.07-2.03,14.14-3.04,21.21,8.69,2.2,17.43,4.14,26.22,5.82-.65,5.55-4.34,10.56-9.19,12.44-4.84,1.88-10.61.56-14.34-3.29,1.26,6.47-6.04,13.75-2.22,18.89,1.02,1.37,2.6,2.07,4.07,2.8,8.3,4.12,15.36,11.14,19.87,19.77.75,2.31,1.51,4.63,2.26,6.94-4.87,1.47-9.91,2.3-14.96,2.47-.95-1.67-1.9-3.34-2.85-5-5.5,2.86-8.44,10.51-6.47,16.79,1.75,5.54,6.46,9.22,10.91,12.52,5.83,4.33,11.85,8.75,18.75,10.38,3.69.87,7.94,1.15,10.35,4.31,3.33,4.37.35,11.68-4.52,13.73-4.86,2.04-10.4.18-14.92-2.65-4.52-2.83-8.55-6.61-13.34-8.84-2.21,4.39-4.43,8.78-6.64,13.17-.86,1.7-1.73,3.46-1.86,5.39-.38,5.6,5.21,9.16,9.9,11.47s10.15,6.35,9.24,11.88c8.56,1.68,16.69,5.89,23.28,12.07-11.82,2.59-24.15,2.46-35.92-.4-2.17-.53-4.94-.9-6.15,1.13-.53.89-.57,2-.59,3.06-.2,12.63,1.01,25.28,3.6,37.59,1.04,1.32,3.19,1.32,4.23,0"/>
  <path class="cls-24" d="M618.04,773.48c-3.06-11.35-3.54-23.51-1.39-35.11-4.84.65-9.21,4.47-10.83,9.48-4.74-1.29-5.87-8.38-4.17-13.37,1.7-4.99,5.17-9.19,6.31-14.36.73-3.32.83-7.51,3.63-9.06,2.71-1.5,6.51.56,8.79-1.62,1.18-1.12,1.46-2.97,1.66-4.66.58-4.85,1.16-9.7,1.74-14.55-5.15,3.64-10.31,7.27-15.46,10.91-1.36.96-2.79,1.95-4.41,2.07-3.04.24-5.63-2.8-6.3-6.04s.11-6.6.87-9.81c7.96,2.25,16.42-7.5,13.9-16.02-1.41-4.79-4.96-11.1-1.01-13.72,3.23-2.14,8.11,1.82,10.96-.89.96-.91,1.33-2.34,1.59-3.69,1.14-6.06.77-12.45-1.06-18.31-6.35,3.86-12.71,7.71-19.06,11.57-.3-6.21-.6-12.42-.9-18.63,7.02-.08,14.05,1.59,20.4,4.85,1.14-14.51.62-29.18-1.53-43.56-5.27-1.73-10.56,2.04-15.84,3.72-5.28,1.68-13.03-1.12-12.21-7.04,8.25,2.12,17.47-4.82,18.58-13.98,4.91,1.67,9.63,3.98,14.05,6.84,2.3-10.23.34-21.49-5.21-30.1-3.24,2.56-6.63,5.2-10.58,5.9s-8.6-1.19-9.91-5.31c-1.49-4.69,1.86-9.6,5.63-12.39,3.77-2.79,8.27-4.69,11.01-8.66,2.43-3.51,3.07-8.09,3.23-12.48.33-9.43-1.27-18.93-4.66-27.61-.61-1.57-1.3-3.17-1.33-4.88-.04-2.18.98-4.2,1.96-6.09,4.14-7.95,8.17-14.52,12.31-22.47-4.96,9.5-1.37,23.18-8.47,30.9,4.24,8.42,6.35,18.08,6.06,27.67,3.71,2.6,8.66-5.86,12.07-2.81.87.78,1.18,2.07,1.36,3.28.59,3.86.45,7.84-.4,11.64-4.87,1.05-10.04.43-14.58-1.75-1.35,3.62-1.66,7.69-.9,11.5,7.67-3.48,17.62,1.79,19.83,10.52-3.89,2.79-9.96-1.01-13.44,2.36-1.55,1.5-1.96,3.91-2.28,6.14-1.01,7.07-2.03,14.14-3.04,21.21,8.69,2.2,17.43,4.14,26.22,5.82-.65,5.55-4.34,10.56-9.19,12.44s-10.61.56-14.34-3.29c1.26,6.47-6.04,13.75-2.22,18.89,1.02,1.37,2.6,2.07,4.07,2.8,8.3,4.12,15.36,11.14,19.87,19.77.75,2.31,1.51,4.63,2.26,6.94-4.87,1.47-9.91,2.3-14.96,2.47-.95-1.67-1.9-3.34-2.85-5-5.5,2.86-8.44,10.51-6.47,16.79,1.75,5.54,6.46,9.22,10.91,12.52,5.83,4.33,11.85,8.75,18.75,10.38,3.69.87,7.94,1.15,10.35,4.31,3.33,4.37.35,11.68-4.52,13.73-4.86,2.04-10.4.18-14.92-2.65s-8.55-6.61-13.34-8.84c-2.21,4.39-4.43,8.78-6.64,13.17-.86,1.7-1.73,3.46-1.86,5.39-.38,5.6,5.21,9.16,9.9,11.47,4.7,2.31,10.15,6.35,9.24,11.88,8.56,1.68,16.69,5.89,23.28,12.07-11.82,2.59-24.15,2.46-35.92-.4-2.17-.53-4.94-.9-6.15,1.13-.53.89-.57,2-.59,3.06-.2,12.63,1.01,25.28,3.6,37.59,1.04,1.32,3.19,1.32,4.23,0"/>
  <path class="cls-24" d="M120.81,935.52c-3.06-11.35-3.54-23.51-1.39-35.11-4.84.65-9.21,4.47-10.83,9.48-4.74-1.29-5.87-8.38-4.17-13.37,1.7-4.99,5.17-9.19,6.31-14.36.73-3.32.83-7.51,3.63-9.06,2.71-1.5,6.51.56,8.79-1.62,1.18-1.12,1.46-2.97,1.66-4.66.58-4.85,1.16-9.7,1.74-14.55-5.15,3.64-10.31,7.27-15.46,10.91-1.36.96-2.79,1.95-4.41,2.07-3.04.24-5.63-2.8-6.3-6.04s.11-6.6.87-9.81c7.96,2.25,16.42-7.5,13.9-16.02-1.41-4.79-4.96-11.1-1.01-13.72,3.23-2.14,8.11,1.82,10.96-.89.96-.91,1.33-2.34,1.59-3.69,1.14-6.06.77-12.45-1.06-18.31-6.35,3.86-12.71,7.71-19.06,11.57-.3-6.21-.6-12.42-.9-18.63,7.02-.08,14.05,1.59,20.4,4.85,1.14-14.51.62-29.18-1.53-43.56-5.27-1.73-10.56,2.04-15.84,3.72-5.28,1.68-13.03-1.12-12.21-7.04,8.25,2.12,17.47-4.82,18.58-13.98,4.91,1.67,9.63,3.98,14.05,6.84,2.3-10.23.34-21.49-5.21-30.1-3.24,2.56-6.63,5.2-10.58,5.9-3.95.7-8.6-1.19-9.91-5.31-1.49-4.69,1.86-9.6,5.63-12.39,3.77-2.79,8.27-4.69,11.01-8.66,2.43-3.51,3.07-8.09,3.23-12.48.33-9.43-1.27-18.93-4.66-27.61-.61-1.57-1.3-3.17-1.33-4.88-.04-2.18.98-4.2,1.96-6.09,4.14-7.95,8.17-14.52,12.31-22.47-4.96,9.5-1.37,23.18-8.47,30.9,4.24,8.42,6.35,18.08,6.06,27.67,3.71,2.6,8.66-5.86,12.07-2.81.87.78,1.18,2.07,1.36,3.28.59,3.86.45,7.84-.4,11.64-4.87,1.05-10.04.43-14.58-1.75-1.35,3.62-1.66,7.69-.9,11.5,7.67-3.48,17.62,1.79,19.83,10.52-3.89,2.79-9.96-1.01-13.44,2.36-1.55,1.5-1.96,3.91-2.28,6.14-1.01,7.07-2.03,14.14-3.04,21.21,8.69,2.2,17.43,4.14,26.22,5.82-.65,5.55-4.34,10.56-9.19,12.44-4.84,1.88-10.61.56-14.34-3.29,1.26,6.47-6.04,13.75-2.22,18.89,1.02,1.37,2.6,2.07,4.07,2.8,8.3,4.12,15.36,11.14,19.87,19.77.75,2.31,1.51,4.63,2.26,6.94-4.87,1.47-9.91,2.3-14.96,2.47-.95-1.67-1.9-3.34-2.85-5-5.5,2.86-8.44,10.51-6.47,16.79,1.75,5.54,6.46,9.22,10.91,12.52,5.83,4.33,11.85,8.75,18.75,10.38,3.69.87,7.94,1.15,10.35,4.31,3.33,4.37.35,11.68-4.52,13.73-4.86,2.04-10.4.18-14.92-2.65-4.52-2.83-8.55-6.61-13.34-8.84-2.21,4.39-4.43,8.78-6.64,13.17-.86,1.7-1.73,3.46-1.86,5.39-.38,5.6,5.21,9.16,9.9,11.47,4.7,2.31,10.15,6.35,9.24,11.88,8.56,1.68,16.69,5.89,23.28,12.07-11.82,2.59-24.15,2.46-35.92-.4-2.17-.53-4.94-.9-6.15,1.13-.53.89-.57,2-.59,3.06-.2,12.63,1.01,25.28,3.6,37.59,1.04,1.32,3.19,1.32,4.23,0"/>
  <path class="cls-24" d="M543.86,804.03c-3.06-11.35-3.54-23.51-1.39-35.11-4.84.65-9.21,4.47-10.83,9.48-4.74-1.29-5.87-8.38-4.17-13.37,1.7-4.99,5.17-9.19,6.31-14.36.73-3.32.83-7.51,3.63-9.06,2.71-1.5,6.51.56,8.79-1.62,1.18-1.12,1.46-2.97,1.66-4.66.58-4.85,1.16-9.7,1.74-14.55-5.15,3.64-10.31,7.27-15.46,10.91-1.36.96-2.79,1.95-4.41,2.07-3.04.24-5.63-2.8-6.3-6.04s.11-6.6.87-9.81c7.96,2.25,16.42-7.5,13.9-16.02-1.41-4.79-4.96-11.1-1.01-13.72,3.23-2.14,8.11,1.82,10.96-.89.96-.91,1.33-2.34,1.59-3.69,1.14-6.06.77-12.45-1.06-18.31-6.35,3.86-12.71,7.71-19.06,11.57-.3-6.21-.6-12.42-.9-18.63,7.02-.08,14.05,1.59,20.4,4.85,1.14-14.51.62-29.18-1.53-43.56-5.27-1.73-10.56,2.04-15.84,3.72-5.28,1.68-13.03-1.12-12.21-7.04,8.25,2.12,17.47-4.82,18.58-13.98,4.91,1.67,9.63,3.98,14.05,6.84,2.3-10.23.34-21.49-5.21-30.1-3.24,2.56-6.63,5.2-10.58,5.9-3.95.7-8.6-1.19-9.91-5.31-1.49-4.69,1.86-9.6,5.63-12.39,3.77-2.79,8.27-4.69,11.01-8.66,2.43-3.51,3.07-8.09,3.23-12.48.33-9.43-1.27-18.93-4.66-27.61-.61-1.57-1.3-3.17-1.33-4.88-.04-2.18.98-4.2,1.96-6.09,4.14-7.95,8.17-14.52,12.31-22.47-4.96,9.5-1.37,23.18-8.47,30.9,4.24,8.42,6.35,18.08,6.06,27.67,3.71,2.6,8.66-5.86,12.07-2.81.87.78,1.18,2.07,1.36,3.28.59,3.86.45,7.84-.4,11.64-4.87,1.05-10.04.43-14.58-1.75-1.35,3.62-1.66,7.69-.9,11.5,7.67-3.48,17.62,1.79,19.83,10.52-3.89,2.79-9.96-1.01-13.44,2.36-1.55,1.5-1.96,3.91-2.28,6.14-1.01,7.07-2.03,14.14-3.04,21.21,8.69,2.2,17.43,4.14,26.22,5.82-.65,5.55-4.34,10.56-9.19,12.44s-10.61.56-14.34-3.29c1.26,6.47-6.04,13.75-2.22,18.89,1.02,1.37,2.6,2.07,4.07,2.8,8.3,4.12,15.36,11.14,19.87,19.77.75,2.31,1.51,4.63,2.26,6.94-4.87,1.47-9.91,2.3-14.96,2.47-.95-1.67-1.9-3.34-2.85-5-5.5,2.86-8.44,10.51-6.47,16.79,1.75,5.54,6.46,9.22,10.91,12.52,5.83,4.33,11.85,8.75,18.75,10.38,3.69.87,7.94,1.15,10.35,4.31,3.33,4.37.35,11.68-4.52,13.73s-10.4.18-14.92-2.65c-4.52-2.83-8.55-6.61-13.34-8.84-2.21,4.39-4.43,8.78-6.64,13.17-.86,1.7-1.73,3.46-1.86,5.39-.38,5.6,5.21,9.16,9.9,11.47,4.7,2.31,10.15,6.35,9.24,11.88,8.56,1.68,16.69,5.89,23.28,12.07-11.82,2.59-24.15,2.46-35.92-.4-2.17-.53-4.94-.9-6.15,1.13-.53.89-.57,2-.59,3.06-.2,12.63,1.01,25.28,3.6,37.59,1.04,1.32,3.19,1.32,4.23,0"/>
  <path class="cls-24" d="M409.02,865.87c-3.06-11.35-3.54-23.51-1.39-35.11-4.84.65-9.21,4.47-10.83,9.48-4.74-1.29-5.87-8.38-4.17-13.37,1.7-4.99,5.17-9.19,6.31-14.36.73-3.32.83-7.51,3.63-9.06,2.71-1.5,6.51.56,8.79-1.62,1.18-1.12,1.46-2.97,1.66-4.66.58-4.85,1.16-9.7,1.74-14.55-5.15,3.64-10.31,7.27-15.46,10.91-1.36.96-2.79,1.95-4.41,2.07-3.04.24-5.63-2.8-6.3-6.04-.66-3.24.11-6.6.87-9.81,7.96,2.25,16.42-7.5,13.9-16.02-1.41-4.79-4.96-11.1-1.01-13.72,3.23-2.14,8.11,1.82,10.96-.89.96-.91,1.33-2.34,1.59-3.69,1.14-6.06.77-12.45-1.06-18.31-6.35,3.86-12.71,7.71-19.06,11.57-.3-6.21-.6-12.42-.9-18.63,7.02-.08,14.05,1.59,20.4,4.85,1.14-14.51.62-29.18-1.53-43.56-5.27-1.73-10.56,2.04-15.84,3.72-5.28,1.68-13.03-1.12-12.21-7.04,8.25,2.12,17.47-4.82,18.58-13.98,4.91,1.67,9.63,3.98,14.05,6.84,2.3-10.23.34-21.49-5.21-30.1-3.24,2.56-6.63,5.2-10.58,5.9s-8.6-1.19-9.91-5.31c-1.49-4.69,1.86-9.6,5.63-12.39s8.27-4.69,11.01-8.66c2.43-3.51,3.07-8.09,3.23-12.48.33-9.43-1.27-18.93-4.66-27.61-.61-1.57-1.3-3.17-1.33-4.88-.04-2.18.98-4.2,1.96-6.09,4.14-7.95,8.17-14.52,12.31-22.47-4.96,9.5-1.37,23.18-8.47,30.9,4.24,8.42,6.35,18.08,6.06,27.67,3.71,2.6,8.66-5.86,12.07-2.81.87.78,1.18,2.07,1.36,3.28.59,3.86.45,7.84-.4,11.64-4.87,1.05-10.04.43-14.58-1.75-1.35,3.62-1.66,7.69-.9,11.5,7.67-3.48,17.62,1.79,19.83,10.52-3.89,2.79-9.96-1.01-13.44,2.36-1.55,1.5-1.96,3.91-2.28,6.14-1.01,7.07-2.03,14.14-3.04,21.21,8.69,2.2,17.43,4.14,26.22,5.82-.65,5.55-4.34,10.56-9.19,12.44-4.84,1.88-10.61.56-14.34-3.29,1.26,6.47-6.04,13.75-2.22,18.89,1.02,1.37,2.6,2.07,4.07,2.8,8.3,4.12,15.36,11.14,19.87,19.77.75,2.31,1.51,4.63,2.26,6.94-4.87,1.47-9.91,2.3-14.96,2.47-.95-1.67-1.9-3.34-2.85-5-5.5,2.86-8.44,10.51-6.47,16.79,1.75,5.54,6.46,9.22,10.91,12.52,5.83,4.33,11.85,8.75,18.75,10.38,3.69.87,7.94,1.15,10.35,4.31,3.33,4.37.35,11.68-4.52,13.73-4.86,2.04-10.4.18-14.92-2.65-4.52-2.83-8.55-6.61-13.34-8.84-2.21,4.39-4.43,8.78-6.64,13.17-.86,1.7-1.73,3.46-1.86,5.39-.38,5.6,5.21,9.16,9.9,11.47,4.7,2.31,10.15,6.35,9.24,11.88,8.56,1.68,16.69,5.89,23.28,12.07-11.82,2.59-24.15,2.46-35.92-.4-2.17-.53-4.94-.9-6.15,1.13-.53.89-.57,2-.59,3.06-.2,12.63,1.01,25.28,3.6,37.59,1.04,1.32,3.19,1.32,4.23,0"/>
  <path class="cls-24" d="M588.37,886.21c-4.53-16.82-5.24-34.84-2.05-52.03-7.18.96-13.65,6.63-16.05,14.05-7.03-1.91-8.7-12.42-6.17-19.81,2.52-7.39,7.66-13.61,9.35-21.28,1.09-4.93,1.23-11.12,5.38-13.42,4.01-2.22,9.65.82,13.03-2.4,1.75-1.66,2.16-4.4,2.46-6.91.86-7.19,1.72-14.37,2.58-21.56-7.64,5.39-15.28,10.78-22.91,16.17-2.01,1.42-4.14,2.89-6.53,3.07-4.51.35-8.35-4.14-9.33-8.94s.16-9.78,1.3-14.54c11.79,3.34,24.33-11.11,20.59-23.75-2.1-7.1-7.35-16.45-1.5-20.33,4.79-3.18,12.02,2.7,16.24-1.32,1.42-1.35,1.98-3.46,2.36-5.48,1.69-8.98,1.15-18.45-1.57-27.13-9.42,5.72-18.83,11.43-28.25,17.15-.44-9.2-.89-18.41-1.33-27.61,10.4-.11,20.82,2.36,30.23,7.18,1.69-21.51.92-43.25-2.27-64.55-7.81-2.56-15.64,3.02-23.47,5.51-7.82,2.49-19.31-1.66-18.09-10.44,12.23,3.13,25.9-7.14,27.54-20.71,7.27,2.48,14.28,5.89,20.82,10.14,3.4-15.15.51-31.85-7.73-44.61-4.8,3.8-9.83,7.71-15.69,8.75s-12.75-1.76-14.69-7.87c-2.21-6.95,2.76-14.22,8.34-18.36,5.58-4.14,12.26-6.96,16.32-12.83,3.6-5.19,4.55-11.99,4.78-18.49.49-13.97-1.89-28.05-6.9-40.91-.91-2.33-1.92-4.7-1.97-7.23-.06-3.23,1.45-6.22,2.91-9.03,6.13-11.77,12.1-21.52,18.24-33.29-7.35,14.07-2.03,34.36-12.55,45.8,6.28,12.47,9.41,26.8,8.98,41.01,5.5,3.86,12.83-8.69,17.89-4.17,1.29,1.15,1.75,3.07,2.02,4.86.88,5.71.67,11.62-.6,17.25-7.22,1.56-14.87.64-21.61-2.59-1.99,5.37-2.47,11.39-1.33,17.05,11.37-5.16,26.11,2.65,29.39,15.59-5.76,4.13-14.76-1.49-19.92,3.49-2.3,2.22-2.9,5.8-3.38,9.1-1.5,10.48-3,20.95-4.5,31.43,12.87,3.26,25.83,6.14,38.85,8.62-.96,8.23-6.44,15.65-13.61,18.44-7.18,2.79-15.72.83-21.26-4.88,1.86,9.59-8.96,20.37-3.29,27.99,1.51,2.03,3.85,3.06,6.04,4.15,12.3,6.1,22.76,16.51,29.44,29.3,1.12,3.43,2.24,6.86,3.35,10.29-7.22,2.18-14.68,3.41-22.17,3.66-1.41-2.47-2.82-4.94-4.22-7.41-8.15,4.24-12.51,15.57-9.58,24.88,2.59,8.21,9.58,13.66,16.17,18.55,8.64,6.42,17.57,12.97,27.79,15.38,5.47,1.29,11.77,1.7,15.34,6.39,4.94,6.47.51,17.31-6.69,20.34s-15.41.26-22.11-3.93-12.67-9.79-19.77-13.1c-3.28,6.5-6.56,13.01-9.85,19.51-1.27,2.51-2.57,5.13-2.76,7.99-.56,8.3,7.71,13.58,14.67,17,6.96,3.42,15.05,9.42,13.69,17.6,12.69,2.49,24.73,8.73,34.5,17.89-17.52,3.84-35.78,3.64-53.23-.59-3.22-.78-7.32-1.33-9.11,1.68-.78,1.31-.85,2.97-.87,4.53-.3,18.71,1.49,37.46,5.34,55.7,1.55,1.96,4.73,1.96,6.28,0"/>
  <path class="cls-51" d="M700.23,869.7c3.07-4.32,4.87-9.68,5.08-15.13,3.18,5.46,7.54,10.11,12.62,13.47,8.86-5.18,13.09-18.13,9.22-28.24-11.43-2.25-23.13-5.75-31.95-13.99-8.82-8.24-13.94-22.33-9.37-33.96,5.87-3.99,14.71-1.01,17.48,5.9,6.41-5.32,9.42-15.06,7.26-23.52-5.54-.41-10.92-3.04-14.87-7.29-7.96,6.29-21.27-.13-22.33-10.78,3.37-8.56,6.74-17.12,10.12-25.68-2.26,9.76,8.75,19.68,17.13,15.42,6.3-3.2,8.99-11.8,8.05-19.3-.95-7.5-4.72-14.16-8.41-20.57-2.39,1-4.79,2.01-7.18,3.01-5.09-5.19-6.68-14.04-3.76-20.93,6.08,5.2,10.91,12.1,13.91,19.86,3.21-4.68,4.97-10.52,4.9-16.36-12.89-10.84-21.8-27.15-24.4-44.66,9.38-7.16,18.77-14.31,28.15-21.47,1.32-1.01,2.75-2.18,3.07-3.91.23-1.23-.17-2.49-.64-3.64-2.42-6.02-6.81-11.08-12.2-14.06-5.81,4.41-14.41,0-17.67-6.84-3.26-6.85-2.71-15.01-2.07-22.69,4.1,2.1,7.55,5.69,9.68,10.05,4.25-7.06,6.27-15.67,5.67-24.09,5.88,1.02,12.28,1.95,17.46-1.25,5.18-3.19,7.37-12.36,2.49-16.06-3.6,1.19-7.21,2.38-10.81,3.57-.58-8.26-6.88-14.4-11.93-20.58-5.06-6.18-9.32-15.31-5.37-22.39,6.34,1.11,12.37,4.24,17.16,8.9-.95-7.69-1.89-15.39-2.84-23.08-6.68,3.75-15.24-1.02-19-8.1s-4-15.66-4.13-23.84c1.56,13.76,1.86,27.68.91,41.51-4.91-3.02-10.54,3.95-10.33,10.08s3.48,11.69,4.19,17.78c1.22,10.48-5.27,20.5-4.79,31.05.1,2.19.49,4.5-.33,6.5-.89,2.18-2.98,3.44-4.93,4.53-6.59,3.71-13.18,7.42-19.77,11.13,4.28-.34,9.57-.11,11.53,4.05.77,1.64.82,3.59,1.57,5.23,1.36,2.98,4.56,4.24,7.02,6.23,6.84,5.55,7.35,17.08,3.43,25.34-3.91,8.26-11.08,14-17.99,19.44,8.97.6,12.03,13.52,10.96,23.24-1.5,13.57-6.24,26.69-13.63,37.73,8.5,2.51,17.87,1.29,25.58-3.32,5.84-3.49,13.2-8.79,18.23-4.04,4,3.79,2.46,11.03-.58,15.76-8.24,12.83-26.77,17.14-37.78,7.09-3.05,5.33-4.85,11.5-5.18,17.77,9.83,1.98,17.1,11.71,19.94,22.14,2.84,10.43,2.08,21.57,1.29,32.42-8.44-.18-16.88.17-25.28,1.03-2.17,6.23,6.2,9.75,11.88,12.24,10.02,4.38,16.62,16.6,15.26,28.26-1.8.24-3.59.48-5.39.72-2.71.36,4.01,30.85,5.01,33.57,1.61-18.56,24.83-6.93,28.66,4.72Z"/>
  <path class="cls-51" d="M498.58,825.23c3.13-4.41,4.97-9.89,5.19-15.47,3.25,5.58,7.71,10.33,12.9,13.76,9.06-5.3,13.38-18.53,9.43-28.86-11.68-2.3-23.64-5.88-32.65-14.3-9.01-8.42-14.25-22.82-9.58-34.71,6-4.08,15.03-1.03,17.87,6.03,6.56-5.44,9.63-15.39,7.42-24.04-5.66-.42-11.16-3.11-15.2-7.45-8.14,6.43-21.73-.13-22.82-11.02,3.45-8.75,6.89-17.5,10.34-26.24-2.31,9.98,8.94,20.11,17.51,15.76,6.43-3.27,9.19-12.06,8.22-19.72-.97-7.66-4.83-14.47-8.6-21.02-2.45,1.03-4.89,2.05-7.34,3.08-5.21-5.3-6.83-14.35-3.84-21.39,6.21,5.31,11.15,12.37,14.21,20.3,3.29-4.78,5.08-10.75,5.01-16.72-13.17-11.08-22.28-27.74-24.93-45.64,9.59-7.31,19.18-14.63,28.77-21.94,1.35-1.03,2.81-2.23,3.13-3.99.23-1.26-.18-2.55-.65-3.72-2.48-6.15-6.96-11.32-12.46-14.36-5.94,4.51-14.73,0-18.06-6.99-3.33-7-2.76-15.34-2.12-23.19,4.19,2.15,7.72,5.81,9.89,10.27,4.34-7.21,6.41-16.02,5.79-24.61,6.01,1.04,12.55,1.99,17.84-1.27,5.29-3.26,7.53-12.63,2.54-16.41-3.68,1.22-7.37,2.43-11.05,3.65-.59-8.44-7.03-14.71-12.19-21.03s-9.52-15.65-5.48-22.88c6.48,1.13,12.64,4.33,17.53,9.1-.97-7.86-1.93-15.72-2.9-23.59-6.82,3.83-15.57-1.04-19.42-8.28-3.85-7.23-4.09-16-4.22-24.36,1.59,14.06,1.9,28.29.93,42.42-5.01-3.09-10.77,4.04-10.56,10.3s3.56,11.94,4.28,18.17c1.24,10.71-5.39,20.95-4.89,31.73.1,2.24.5,4.6-.34,6.64-.91,2.23-3.05,3.51-5.04,4.63-6.73,3.79-13.47,7.58-20.2,11.37,4.38-.35,9.78-.11,11.78,4.14.79,1.67.84,3.66,1.6,5.35,1.39,3.05,4.66,4.34,7.17,6.37,7,5.67,7.51,17.46,3.51,25.9-4,8.44-11.32,14.31-18.39,19.87,9.17.61,12.29,13.81,11.2,23.75-1.53,13.86-6.37,27.28-13.92,38.56,8.68,2.56,18.26,1.32,26.14-3.39,5.96-3.56,13.49-8.99,18.63-4.12,4.09,3.87,2.52,11.27-.59,16.11-8.42,13.11-27.35,17.52-38.61,7.25-3.12,5.45-4.96,11.75-5.29,18.16,10.04,2.02,17.48,11.97,20.38,22.63,2.9,10.66,2.12,22.05,1.32,33.13-8.62-.18-17.25.17-25.83,1.05-2.22,6.37,6.33,9.97,12.14,12.5,10.24,4.47,16.99,16.96,15.59,28.88-1.83.24-3.67.49-5.5.73-2.77.37,4.1,31.53,5.12,34.31,1.64-18.97,25.38-7.08,29.29,4.82Z"/>
  <path class="cls-51" d="M57.01,919.49c3.13-4.41,4.97-9.89,5.19-15.47,3.25,5.58,7.71,10.33,12.9,13.76,9.06-5.3,13.38-18.53,9.43-28.86-11.68-2.3-23.64-5.88-32.65-14.3-9.01-8.42-14.25-22.82-9.58-34.71,6-4.08,15.03-1.03,17.87,6.03,6.56-5.44,9.63-15.39,7.42-24.04-5.66-.42-11.16-3.11-15.2-7.45-8.14,6.43-21.73-.13-22.82-11.02,3.45-8.75,6.89-17.5,10.34-26.24-2.31,9.98,8.94,20.11,17.51,15.76,6.43-3.27,9.19-12.06,8.22-19.72s-4.83-14.47-8.6-21.02c-2.45,1.03-4.89,2.05-7.34,3.08-5.21-5.3-6.83-14.35-3.84-21.39,6.21,5.31,11.15,12.37,14.21,20.3,3.29-4.78,5.08-10.75,5.01-16.72-13.17-11.08-22.28-27.74-24.93-45.64,9.59-7.31,19.18-14.63,28.77-21.94,1.35-1.03,2.81-2.23,3.13-3.99.23-1.26-.18-2.55-.65-3.72-2.48-6.15-6.96-11.32-12.46-14.36-5.94,4.51-14.73,0-18.06-6.99-3.33-7-2.76-15.34-2.12-23.19,4.19,2.15,7.72,5.81,9.89,10.27,4.34-7.21,6.41-16.02,5.79-24.61,6.01,1.04,12.55,1.99,17.84-1.27,5.29-3.26,7.53-12.63,2.54-16.41-3.68,1.22-7.37,2.43-11.05,3.65-.59-8.44-7.03-14.71-12.19-21.03-5.17-6.32-9.52-15.65-5.48-22.88,6.48,1.13,12.64,4.33,17.53,9.1-.97-7.86-1.93-15.72-2.9-23.59-6.82,3.83-15.57-1.04-19.42-8.28-3.85-7.23-4.09-16-4.22-24.36,1.59,14.06,1.9,28.29.93,42.42-5.01-3.09-10.77,4.04-10.56,10.3s3.56,11.94,4.28,18.17c1.24,10.71-5.39,20.95-4.89,31.73.1,2.24.5,4.6-.34,6.64-.91,2.23-3.05,3.51-5.04,4.63-6.73,3.79-13.47,7.58-20.2,11.37,4.38-.35,9.78-.11,11.78,4.14.79,1.67.84,3.66,1.6,5.35,1.39,3.05,4.66,4.34,7.17,6.37,7,5.67,7.51,17.46,3.51,25.9-4,8.44-11.32,14.31-18.39,19.87,9.17.61,12.29,13.81,11.2,23.75-1.53,13.86-6.37,27.28-13.92,38.56,8.68,2.56,18.26,1.32,26.14-3.39,5.96-3.56,13.49-8.99,18.63-4.12,4.09,3.87,2.52,11.27-.59,16.11-8.42,13.11-27.35,17.52-38.61,7.25-3.12,5.45-4.96,11.75-5.29,18.16,10.04,2.02,17.48,11.97,20.38,22.63,2.9,10.66,2.12,22.05,1.32,33.13-8.62-.18-17.25.17-25.83,1.05-2.22,6.37,6.33,9.97,12.14,12.5,10.24,4.47,16.99,16.96,15.59,28.88-1.83.24-3.67.49-5.5.73-2.77.37,4.1,31.53,5.12,34.31,1.64-18.97,25.38-7.08,29.29,4.82Z"/>
  <path class="cls-58" d="M345.36,830.86s1581.31-367.07,2214.64-342.3v497.58l-2142.67-60.33-71.97-94.95Z"/>
  <path class="cls-4" d="M0,888.37v382.48h0v-94.95l1.48-.26c206.07,23.93,551.51-15.83,551.51-15.83,754.1-116.13,1257.7-59.85,1288.34-56.23v167.26h718.67v-450.2C1478.67,591.26,0,888.37,0,888.37Z"/>
  <g>
    <ellipse class="cls-22" cx="651.22" cy="1050.94" rx="43.27" ry="20.02"/>
    <circle class="cls-22" cx="719.12" cy="1069.71" r="14.88"/>
    <ellipse class="cls-22" cx="754.66" cy="1021.33" rx="33.33" ry="14.67"/>
    <ellipse class="cls-22" cx="773.33" cy="1065.01" rx="14.66" ry="5.65"/>
    <ellipse class="cls-22" cx="834.13" cy="1041.64" rx="30.13" ry="2.84"/>
  </g>
  <path class="cls-23" d="M1873.04,243.05c-5.17,0-10.16.75-14.88,2.13.02-.59.04-1.18.04-1.78,0-24.47-19.83-44.3-44.3-44.3-20.04,0-36.96,13.31-42.43,31.56-10.67-7.6-23.72-12.09-37.82-12.09-36.04,0-65.26,29.22-65.26,65.26s29.22,65.26,65.26,65.26h139.38c29.28,0,53.02-23.74,53.02-53.02s-23.74-53.02-53.02-53.02Z"/>
  <path class="cls-23" d="M1565.47,152.31c-3.63,0-7.13.53-10.44,1.5.02-.41.03-.83.03-1.25,0-17.18-13.92-31.1-31.1-31.1-14.07,0-25.95,9.34-29.79,22.16-7.49-5.34-16.65-8.49-26.55-8.49-25.3,0-45.82,20.51-45.82,45.82s20.51,45.82,45.82,45.82h97.85c20.56,0,37.23-16.67,37.23-37.23s-16.67-37.23-37.23-37.23Z"/>
  <path class="cls-23" d="M470.2,153.26c-7.63,0-14.99,1.11-21.96,3.15.03-.87.07-1.74.07-2.63,0-36.12-29.28-65.39-65.39-65.39-29.58,0-54.56,19.64-62.64,46.59-15.75-11.22-35.01-17.85-55.83-17.85-53.21,0-96.34,43.13-96.34,96.34s43.13,96.34,96.34,96.34h205.75c43.23,0,78.27-35.04,78.27-78.27s-35.04-78.27-78.27-78.27Z"/>
  <path class="cls-23" d="M943,389.03c-7.05,0-13.73,1.53-19.77,4.24.09-1.4.13-2.82.13-4.24,0-37.75-30.61-68.36-68.36-68.36s-68.36,30.61-68.36,68.36c0,0,0,.02,0,.03-.38,0-.75-.03-1.14-.03-26.61,0-48.19,21.57-48.19,48.19s21.57,48.19,48.19,48.19h157.49c26.61,0,48.19-21.57,48.19-48.19s-21.57-48.19-48.19-48.19Z"/>
  <path class="cls-23" d="M2437.04,314.16c-5.3,0-10.34,1.15-14.88,3.19.06-1.06.1-2.12.1-3.19,0-28.42-23.04-51.46-51.46-51.46s-51.46,23.04-51.46,51.46c0,0,0,.01,0,.02-.29,0-.57-.02-.86-.02-20.03,0-36.27,16.24-36.27,36.27s16.24,36.27,36.27,36.27h118.55c20.03,0,36.27-16.24,36.27-36.27s-16.24-36.27-36.27-36.27Z"/>
  <path class="cls-23" d="M2223.17,236.52c-3.81,0-7.42.82-10.68,2.29.05-.76.07-1.52.07-2.29,0-20.4-16.54-36.93-36.93-36.93s-36.93,16.54-36.93,36.93c0,0,0,.01,0,.02-.2,0-.41-.02-.61-.02-14.38,0-26.03,11.66-26.03,26.03s11.66,26.03,26.03,26.03h85.09c14.38,0,26.03-11.66,26.03-26.03s-11.66-26.03-26.03-26.03Z"/>
  <g>
    <path class="cls-5" d="M969.56,250.72c2.48,1.57,6.72,5.49,11.66,10.48-1.2,1.77-2.29,3.54-3.27,5.3-4.74-9.61-8.39-15.78-8.39-15.78Z"/>
    <path class="cls-17" d="M921.06,403.04c.43.83.77,1.91,1.05,3.15-.46-.87-.82-1.9-1.05-3.15Z"/>
    <path class="cls-35" d="M931.07,410.23s2.07,11.69-3.8,18.24c0,0,10.01,15.46,5.18,26.71,0,0,.69-10.15-3.45-12.56,0,0,.69,10.6-4.83,14.96,0,0,2.76-10.82,0-14.62,0,0-2.76,13.02-6.9,14.62,0,0,7.25-31.19-7.25-23.25,0,0,.35-7.25,12.77-6.56,0,0,1.02-13.91-.68-21.59,2.76,5.23,8.96,4.04,8.96,4.04Z"/>
    <path class="cls-17" d="M980.13,384.71c-.33-.2-.68-.45-1.08-.76.39,0,.74.29,1.08.76Z"/>
    <path class="cls-35" d="M983.54,381.53s4.14,6.39,3.45,15.96c0,0,12.08,5.18,12.08,15.14,0,0-6.9-6.95-9.66-6.6,0,0,7.59,7.94,6.56,13.12,0,0-6.56-9.57-8.97-8.93,0,0,4.49,7.54,3.11,16.17,0,0-6.9-28.22-16.22-13.76,0,0-5.87-9.19,9.32-14.45,0,0-1.02-10.53-3.07-13.47,4.11,2.52,3.41-3.18,3.41-3.18Z"/>
    <path class="cls-33" d="M959.72,358.75c2.42-12.08,14.15-12.09,14.15-12.09,0,0,12.43,21.06,9.66,34.87,0,0,.7,5.7-3.41,3.18-.33-.48-.69-.76-1.08-.76l-16.57-13.26s1.04,10.38-3.45,15.44c0,0-4.14,5.63-13.46-8.63,11.74-5.07,14.15-18.75,14.15-18.75Z"/>
    <path class="cls-35" d="M916.75,231.82c-8.54-5.18-7.42-18.72-7.42-18.72,0,0,6.56-2.76,5.87,3.45,0,0,8.63-3.8,9.66,7.77,0,0,9.66,3.62,9.32,12.94l-13.12-5.52-4.31-11.3v11.39Z"/>
    <path class="cls-45" d="M846.17,170.65s35.21,15.88,63.16,42.45c0,0-1.12,13.55,7.42,18.72v-11.39s4.31,11.3,4.31,11.3c0,0,14.15,43.83,21.05,51.08l16.57,22.43-10.01,3.02c-18.29-19.76-41.76-86.89-41.76-86.89-46.25-51.43-104.23-56.26-104.23-56.26,0,0,2.07-8.28,43.49,5.52Z"/>
    <path class="cls-17" d="M969.56,250.72c2.48,1.57,6.72,5.49,11.66,10.48-1.2,1.77-2.29,3.54-3.27,5.3-4.74-9.61-8.39-15.78-8.39-15.78Z"/>
    <path class="cls-1" d="M906.91,221.38s23.47,67.13,41.76,86.89l10.01-3.02s6.9,1.12,11.04,1.77c0,0-3.65-19.25,8.22-40.52,8.08,16.38,19.33,42.76,21.12,65.76,0,0-1.42,9.7-1.56,22.07-.42-1.08-.82-2.22-1.2-3.41,0,0-2.42-7.16-12.08-5.53l-10.35,1.28s-11.73,0-14.15,12.09c0,0-2.42,13.68-14.15,18.75,0,0-3.8-1.52-5.87,16.27,0,0-2.07,13.4-8.63,16.46,0,0-6.2,1.19-8.96-4.04-.27-1.24-.62-2.32-1.05-3.15,0,0-6.56-32.21-2.07-36.69,0,0-7.94,4.83-8.97-16.39,0,0-10.35-54.71-21.74-67.3,0,0-8.97-15.36-26.92-31.24,0,0-30.03-35.55-35.55-51.77,0,0-16.22-32.1-23.12-34.51,0,0,57.98,4.83,104.23,56.26Z"/>
    <path class="cls-1" d="M1033.58,224.32s29.13-39.37,44.05-56.54c0,0-22.39,57.87-20.84,67.69,0,0-3.11,14.48-12.68,19.65,0,0-24.13,15.06-34.42,36.98-7.37-8.34-19.17-21.51-28.47-30.9,9.14-13.48,25.01-27.2,52.37-36.89Z"/>
    <path class="cls-5" d="M999.07,332.26c-1.79-23-13.04-49.38-21.12-65.76.98-1.76,2.07-3.52,3.27-5.3,14.63,14.77,35.45,38.87,35.45,38.87,0,0,12.08,16.3,14.84,23.51,0,0,10.01-1.23,13.12,30.94l1.8,2.56c-1.29.73-2.91,1.06-4.9.54,0,0,1.29,13.2-17.34,5.69,0,0-13.46-9.84-18.38-3.11,0,0-1.27,2.15-1.35,5.97-2.47-2.88-4.93-6.73-6.94-11.86.14-12.37,1.56-22.07,1.56-22.07Z"/>
    <path class="cls-8" d="M1041.52,388.69c-2.87-7.81-8.34-12.41-10.82-14.17l25.83,17.02,7.63,16.36c-11.79-5.39-22.64-19.2-22.64-19.2Z"/>
    <path class="cls-18" d="M1030.7,374.52l-1.28-.84s.49.28,1.28.84Z"/>
    <path class="cls-1" d="M1005.8,360.22c4.92-6.73,18.38,3.11,18.38,3.11,18.64,7.51,17.34-5.69,17.34-5.69,2,.52,3.61.19,4.9-.54l35.13,49.98-25.02-15.53-25.83-17.02c-.79-.56-1.28-.84-1.28-.84l1.28.84c2.48,1.77,7.95,6.37,10.82,14.17,0,0,10.85,13.82,22.64,19.2l2.21,4.74s-8.28-.77-26.58-18.87c0,0-17.6-17.76-24.16-19.48,0,0-5.58-1.54-11.19-8.1.09-3.82,1.35-5.97,1.35-5.97Z"/>
    <circle class="cls-14" cx="1014.94" cy="353.23" r="2.81"/>
    <path class="cls-35" d="M1061.88,243.82s9.66-7.94,20.36,1.38l-10.01,1.04s10.01,4.14,10.01,7.94c0,0-9.32-4.14-14.5-3.11,0,0,10.01,8.28,7.94,11.39,0,0-13.46-11.04-20.36-7.94-3.28-5.46,6.56-10.7,6.56-10.7Z"/>
    <path class="cls-45" d="M1044.11,255.12c9.58-5.18,12.68-19.65,12.68-19.65-1.55-9.82,20.84-67.69,20.84-67.69,3.95-4.54,6.91-7.54,8.07-7.83,0,0-24.85,75.24-23.82,83.87,0,0-9.84,5.24-6.56,10.7,0,0-35.9,26.58-38.66,45.56,0,0-2.77-3.2-6.98-7.97,10.29-21.92,34.42-36.98,34.42-36.98Z"/>
    <path class="cls-15" d="M1046.43,373.68s-1.11-3.63-5.94-2.25"/>
  </g>
  <text class="cls-11" transform="translate(888.32 565.27)"><tspan x="0" y="0">Where&apos;s Dino?</tspan></text>
  <text class="cls-12" transform="translate(957.64 625.22)"><tspan x="0" y="0">Look for Dinosaur Friends!</tspan><tspan x="62.69" y="64">Gather the dinosaurs</tspan><tspan x="-14.81" y="128">and complete the guidebook.</tspan></text>
  <g>
    <polygon class="cls-42" points="2086.72 911.98 2087.37 919.11 2075.5 915.54 2070.16 907.5 2074.77 902.84 2086.72 911.98"/>
    <polygon class="cls-57" points="2068.48 926.23 2087.51 919.16 2076.52 905.76 2064.29 907.5 2064.29 922.46 2068.48 926.23"/>
    <path class="cls-61" d="M2045.42,905.76s-6.71,4.12,0,13.35l13.84,4.19,9.22,2.93,1.68-7.13-5.87-8.39-18.87-4.96Z"/>
    <path class="cls-54" d="M2050.45,899.4l-5.03,6.36,12.58,8.73,12.16,4.61,7.55-5.03s2.52-11.74-11.74-17.61c0,0-14.25-2.52-15.51,2.93Z"/>
  </g>
  <g>
    <polygon class="cls-42" points="238.33 964.23 237.53 973.04 252.2 968.64 258.81 958.69 253.11 952.93 238.33 964.23"/>
    <polygon class="cls-57" points="260.88 981.86 237.35 973.11 250.94 956.54 266.07 958.69 266.07 977.19 260.88 981.86"/>
    <path class="cls-61" d="M289.4,956.54s8.29,5.1,0,16.5l-17.11,5.18-11.4,3.63-2.07-8.81,7.26-10.37,23.33-6.13Z"/>
    <path class="cls-54" d="M283.17,948.68l6.22,7.86-15.55,10.8-15.03,5.7-9.33-6.22s-3.11-14.52,14.52-21.77c0,0,17.63-3.11,19.18,3.63Z"/>
  </g>
  <g>
    <polygon class="cls-42" points="210 980.93 210.62 987.67 199.39 984.3 194.33 976.69 198.7 972.28 210 980.93"/>
    <polygon class="cls-57" points="192.75 994.42 210.75 987.73 200.36 975.05 188.78 976.69 188.78 990.85 192.75 994.42"/>
    <path class="cls-61" d="M170.93,975.05s-6.35,3.9,0,12.63l13.09,3.97,8.73,2.78,1.59-6.74-5.55-7.93-17.85-4.69Z"/>
    <path class="cls-54" d="M175.69,969.03l-4.76,6.02,11.9,8.26,11.5,4.36,7.14-4.76s2.38-11.11-11.11-16.66c0,0-13.49-2.38-14.68,2.78Z"/>
  </g>
  <g>
    <polygon class="cls-42" points="241.31 992.27 241.68 996.31 234.95 994.29 231.92 989.73 234.54 987.08 241.31 992.27"/>
    <polygon class="cls-57" points="230.97 1000.35 241.76 996.34 235.53 988.74 228.59 989.73 228.59 998.21 230.97 1000.35"/>
    <path class="cls-61" d="M217.9,988.74s-3.8,2.34,0,7.57l7.85,2.38,5.23,1.66.95-4.04-3.33-4.75-10.7-2.81Z"/>
    <path class="cls-54" d="M220.75,985.14l-2.85,3.61,7.13,4.95,6.89,2.62,4.28-2.85s1.43-6.66-6.66-9.98c0,0-8.08-1.43-8.8,1.66Z"/>
  </g>
  <ellipse class="cls-13" cx="2240.44" cy="807.9" rx="103.54" ry="25.04"/>
  <g>
    <ellipse class="cls-22" cx="1492.85" cy="963.35" rx="35.34" ry="15.11"/>
    <ellipse class="cls-22" cx="1395.51" cy="942.54" rx="14" ry="8"/>
    <ellipse class="cls-22" cx="1578.58" cy="963.34" rx="19.79" ry="12.8"/>
    <ellipse class="cls-22" cx="1536.26" cy="925.88" rx="13.54" ry="6.11"/>
    <ellipse class="cls-22" cx="1595.29" cy="908.02" rx="25.12" ry="13.18"/>
    <ellipse class="cls-22" cx="1630.21" cy="949.94" rx="9.37" ry="1.93"/>
  </g>
  <ellipse class="cls-13" cx="354.1" cy="913.85" rx="144.1" ry="25.85"/>
  <g>
    <path class="cls-7" d="M398.19,887.01v-2.61c5,1.39,8,7.61,8,7.61l-3.91,5.13c-6.91-.87-10.54-12.05-10.54-12.05l1.51,1.92h4.94Z"/>
    <path class="cls-6" d="M404.25,844.46l-9.6,5.41s3.66,21.14,9.6,23.14v9.15s-11.07,13.85,8.43,25.85l10.5,3,2.5-3s11.17,5,17.33,3l11.56.47,5.33-3.47h18.67s-3.39-7.61-3.39-7.61c0,0-8-10.39-21-8.39,0,0-31.33-.39-23.17-25.69l8.44-36.31-35.21,14.45Z"/>
    <path class="cls-6" d="M448.35,847.31l-2.67,7.9,7.11,17.8,25.78,3.83,2.15,5.13,13.46,10.04,14,4,2-3s-.25-13.84-8.62-12.92l-12.32-18.08-40.89-14.7Z"/>
    <polygon class="cls-21" points="588.95 847.31 587.19 842.01 583.02 844.66 582.19 839.01 579.02 844.46 577.69 837.51 573.69 842.41 573.69 835.01 569.68 841.16 568.84 835.01 564.03 838.43 563.18 831.51 557.19 837.51 554.02 839.41 554.02 830.68 549.58 835.01 549.58 828.68 544.73 833.76 544.73 825.68 538.85 830.01 540.19 822.01 534.19 829.01 536.19 819.01 530.44 824.34 532.19 817.01 525.19 824.01 530.44 839.51 559.19 843.01 586.35 849.01 588.95 847.31"/>
    <polygon class="cls-21" points="583.46 786.7 585.63 796.17 585.63 806.51 582.26 799.83 581.19 812.01 576.65 803.39 575.19 814.01 569.68 806.46 568.57 814.01 564.01 808.06 564.01 815.51 559.92 808.75 558.13 815.51 555.02 809.01 552.8 815.51 549.46 809.01 548.19 815.01 544.57 809.01 541.19 815.01 539.02 809.01 536.57 815.51 533.69 809.01 530.44 814.62 528.59 808.73 526.57 815.51 522.71 809.13 521.19 817.01 517.76 811 515.24 817.01 513.54 813.82 525.91 788.46 583.46 786.7"/>
    <path class="cls-7" d="M507.69,806.51l5.85,7.31s23.15,4.69,28.15,16.19c0,0,2.5,5,25.5,9,0,0,25,3.39,26.5,16.2l-26.5,5.8-28-3h-21s-28-6-28-6l-23-17,7-21,33.5-7.5Z"/>
    <path class="cls-8" d="M495.19,820.01l7.92,3.94s15.08,2.06,24.08,11.06c0,0,10,10,22,2,0,0,18-9,20-5,0,0,4.45,1.67-13.27,14.33l-18.73,8.67-32-4-16.5-12.17-14.78-5.08v-7.36s13.11-6.39,13.11-6.39h8.17Z"/>
    <polygon class="cls-21" points="591.95 855.01 588.19 851.01 588.19 854.55 584.69 851.01 582.52 855.01 580.19 849.01 577.19 855.01 575.85 849.01 571.19 854.01 571.19 846.18 567.35 850.59 566.19 845.01 562.35 850.01 560.68 842.79 558.19 850.01 557.19 842.79 553.19 850.01 552.19 841.01 549.58 850.34 548.19 842.01 546.19 849.01 544.19 844.01 542.25 852.67 540.69 844.46 536.19 854.01 536.19 847.31 531.02 852.82 531.02 845.68 527.19 852.01 527.19 844.46 522.19 850.01 524.19 843.01 518.69 848.01 520.19 842.01 513.54 848.01 515.19 840.01 507.52 844.46 510.84 837.51 503.19 841.01 505.19 835.01 497.52 837.51 500.17 847.31 520.19 862.01 553.19 863.01 591.95 855.01"/>
    <path class="cls-21" d="M498.2,820.01l6.26,2.81.73,8.19-5.45-4.6,1.45,5.6-6.86-2.81.86,4.56-4.41-3.58s-4.92-10.17-3.76-10.17,11.18,0,11.18,0Z"/>
    <path class="cls-6" d="M441.19,771.01s-12.44-32-9.72-46c0,0-9.28-46.56-33.28-61.28,0,0-5.57-9.57-13.73-20.65,7.84,3.67,16.04,8.3,18.23,12.43,0,0,40.78,22.55,35.89,48.78,0,0,14.06,3.72,13.33,31.72,0,0,5.28,43.78,10.28,40.39,0,0-11,10.61-21-5.39Z"/>
    <path class="cls-53" d="M189.24,600.16s-2.06-55.15,9.94-31.15c0,0,13.22,50.89,21.61,48.94,0,0,14.39,23.06,61.39,10.06,0,0,52.17-10.22,86.09,8.39,0,0,7.9,2.8,16.19,6.68,8.16,11.08,13.73,20.65,13.73,20.65,24,14.72,33.28,61.28,33.28,61.28-2.72,14,9.72,46,9.72,46,10,16,21,5.39,21,5.39,0,0,5.56.61,9.28-12.39,0,0,5.5-8,11.11-8,0,0,2.61-15,26.61-5,0,0,9,5,23-1,0,0,5-2,32,1l17-6s12-6,15,4c0,0,16.56,24.9,3.28,39.45,0,0-8.72.27-16,10.41,0,0-10.28,9.14-26.28,10.14h-27.06s-9.94-3-19.94,8c0,0-12.89,16-24.94,13h-7.11s18.94,2.17,32,14.09c0,0,20.72,4.52,20.89,8.72,0,0,10.5-.21,13.33-5.51,0,0,17.94-4.3,24.89,4.7,0,0,16.94,2.39,24.44,3.2,0,0,7.5,20.8-25.5,14.8,0,0-26.44-4-40.72,2,0,0-45.28,19-59.28,5l-19.83-22.17s-17.39-5.17-25.78,0c0,0-42.17-4.53-53.78-16.18,0,0-38.39-34.28-52-51.96l-41.33-96.68s-58.83-8-67.56-34.5c0,0-22.61-35.21-18.67-55.35Z"/>
    <path class="cls-34" d="M339.19,729.01s-4,41-17,45c0,0-5.89,2.72-4.94,24.86,0,0-1.28,32.31-18.67,45.23,0,0-11.61,13.91-8,27.91,0,0-3.06,6.29,9.78,10.15,0,0,19.83,13.85,16.83,20.85h-5.72s-14.28,3-14.28,3c0,0-9-9-20-10,0,0-3.78,8-8.39,10l-8.61,2-10-5-2-8-8,1-14-3v-7.28s1.44-16.5,29.72-25.11c0,0,2.17-7.01,10.22-13.31,0,0,3.39-11.3-1.78-12.3,0,0,14.83-18-12.17-52,0,0-3-43,19-81,0,0,1-37,35-49,0,0,46,7,33,76Z"/>
    <path class="cls-34" d="M366.57,851.01c4.39-4,2.61-37,2.61-37,7-19,21.83-9.96,21.83-9.96,27.83,17.04,3.11,37.88,3.11,37.88-6.06.92-6.67,18.69-6.67,18.69,9.28,2.61,10.72,23.78,10.72,23.78,0,0-4.9-2.23-6.45.69h0s-5.55-7.08-5.55-7.08v6s-4,3-4,3l-3.61-8.71-1.78-5.29c-15.39-18-10.22-22-10.22-22Z"/>
    <path class="cls-7" d="M398.19,884.4v2.61h-4.94s-1.51-1.92-1.51-1.92h0c1.55-2.92,6.45-.69,6.45-.69Z"/>
    <circle class="cls-7" cx="484.19" cy="774.01" r="4.5"/>
    <path class="cls-7" d="M510.19,893.01s2,8-1,10c0,0-6,0-11.5-10,0,0,1.5,7-3.5,7,0,0-6.26-3.88-8.63-14.44,0,0,7.63-.56,10.63,4.44,0,0,5-3,8,3h6Z"/>
    <path class="cls-7" d="M474.64,899.76s12.54,3.25,11.54,13.25c0,0-22.56-1-26.28-5,0,0,4.28,3,2.28,7,0,0-11,.22-16.5-3.89,0,0-8.74,1.64-11.12-.23,0,0,10.62-.87,11.62-4.87,0,0,9-2,12,1,0,0,9-2,11-6,0,0,4.91-1.5,5.46-1.25Z"/>
    <path class="cls-7" d="M425.69,908.01s5.5,3,3.5,8c0,0-6.69.23-14.34-7.38,0,0,5.34-4.62,10.84-.62Z"/>
    <path class="cls-7" d="M297.19,906.01s10-12,20-3c0,0,7,10.78,0,12.39,0,0-2,2.61-20-9.39Z"/>
    <path class="cls-7" d="M260.36,898.07c6.08,1.5,10.3,6.8,10.3,6.8,0,0-4.48,13.15-12.48,13.15,0,0-7.24,1.03-8.12-15.48,0,0,6.48-5.41,10.3-4.46Z"/>
    <path class="cls-7" d="M240.19,896.01s-1-6.44-14-9.72c0,0-11,11.72-7,16.72,0,0,17,0,21-7Z"/>
    <path class="cls-7" d="M386.19,884.01s2,9-4,9c0,0-7.22-2.37-4.11-16.19,0,0,5.11,11.19,8.11,7.19Z"/>
  </g>
  <ellipse class="cls-13" cx="1783.62" cy="847.31" rx="101.73" ry="33.11"/>
  <g>
    <path class="cls-32" d="M1570.9,777.65l-13.9-2.38s-3.42.21-1.55,3.42l3.11,2.69,14.72,1.59-2.37-5.32Z"/>
    <path class="cls-32" d="M1585.16,774.64l-3.11-11.49-8.78-16.57s-3.13-3-.95,11.29l2.9,19.16s4.56,3.93,5.07,4.35,4.87-6.73,4.87-6.73Z"/>
    <path class="cls-32" d="M1599.13,771.02c.31-.31-1.24-22.16-1.24-22.16,0,0-.52-6.42-2.8-7.14,0,0-2.8-1.97-3.31,7.46v28.78s7.35-6.94,7.35-6.94Z"/>
    <path class="cls-32" d="M1658.88,742.34l-1.66-16.05s-14.7-8.59-16.05-3.31l-3.21,17.6,12.94,8.9,7.97-7.14Z"/>
    <path class="cls-32" d="M1695.84,718.11l-17.6-9.53v-16.67s-.3-4.95,4.25-3.52l11.8,4.76,9.73,12.53-1.45,9.32-6.73,3.11Z"/>
    <path class="cls-32" d="M1732.19,697.19l-12.84-12.01,9.94-24.75s3.62-5.49,9.53-2.9l13.15,4.66v22.57s-8.39,12.36-8.39,12.36l-11.38.06Z"/>
    <path class="cls-32" d="M1794.62,703.12s14.19-15.04,14.39-15.66.51-15.09.51-15.09l-5.68-15.53s-1.45-4.28-6.11-2.41l-25.78,13.36,1.86,21.43,4.45,10.66,16.36,3.23Z"/>
    <path class="cls-32" d="M1840.18,724.23l-17.6-11.71,1.76-18.74,7.04-7.35s11.39-9.84,15.32,0l6.01,10.77s3.26,8.51-1.99,15.44l-10.53,11.6Z"/>
    <path class="cls-32" d="M1863.53,741.2s3.78-14.6-3.57-10.87l-7.04,3.21-1.43,2.47,7.96,7.68,4.09-2.49Z"/>
    <path class="cls-27" d="M1594.04,770.02l-11.57-17.43s-5.28-6.42-7.25.93v3.83s7.35,15.66,7.35,15.66c0,0,11.04,3.67,11.47-2.99Z"/>
    <path class="cls-27" d="M1580.29,776.82l-1.77-2.52-10.13-9.38s-4.04-3.73-4.04,1.35l7.98,10.56,5.37,4.56,2.59-4.56Z"/>
    <path class="cls-25" d="M1785.46,794.47l-2.61,6.19s.75,6.85-6.71,13.38c0,0,12.11,12.11,9.32,20.97l-13.05-1.4-9.32-.93s-13.67,4.05-15.69-16.61l1.71-29.05,36.34,7.46Z"/>
    <path class="cls-25" d="M1857.06,787.02v15.46s5.75,9.7,7.61,21.81c0,0,9.32,11.18,7.46,14.91l-7.41,2.64h-7.66s-14.75,2.02-15.69-12.89l-9.32-19.57,6.99-25.93,18.02,3.56Z"/>
    <path class="cls-26" d="M1597.22,769.31c31.68-8.39,68.03-32.62,68.03-32.62,56.84-49.39,84.8-50.32,84.8-50.32,54.05-8.39,133.1,70.36,133.1,70.36,32.93-20.5,48.15,15.84,48.15,15.84,1.4,6.06,16.77,16.46,16.77,16.46,9.78,12.27,0,14.49,0,14.49-5.13,3.47-16.77-.69-16.77-.69-33.08,2.78-51.72-3.71-51.72-3.71-.34.14-.71.28-1.1.41l-.3-.41c-7.92-10.25-35.88-6.52-35.88-6.52l-32.62-3.73c-30.75-13.98-64.3-3.73-64.3-3.73-35.41,1.86-60.57-18.64-60.57-18.64-26.09-8.39-49.39,7.46-49.39,7.46-36.34.93-52.04,10.37-52.04,10.37h0c-2.49-.06-3.88-.12-3.88-.12-31.68-4.66,17.71-14.91,17.71-14.91Z"/>
    <path class="cls-36" d="M1635.43,773.97s23.3-15.84,49.39-7.46c0,0,25.16,20.5,60.57,18.64,0,0,33.55-10.25,64.3,3.73l32.62,3.73s27.96-3.73,35.88,6.52l.3.41c-24.87,8.56-139.62-2.28-139.62-2.28l-39.29-12.84c-17.86-12.84-43.64-5.8-43.64-5.8-30.27,6.05-61.77,5.96-72.54,5.71h0s15.69-9.44,52.04-10.37Z"/>
    <circle class="cls-14" cx="1905.67" cy="779.56" r="2.64"/>
    <path class="cls-16" d="M1943.41,793.07s-.93-2.8-3.73-1.86"/>
    <path class="cls-26" d="M1809.69,788.88c3.73,7.46-2.64,27.18-2.64,27.18-2.64,14.14,13.82,37.12,13.82,37.12l16.77,3.73,9.32-6.52c-.93-13.98-12.11-26.09-12.11-26.09,9.32-10.25,7.46-31.68,7.46-31.68l-17.14-30.6-15.65,19.37.17,7.51Z"/>
    <path class="cls-26" d="M1743.52,740.42s5.9,42.31-9.16,64.49c0,0-9.47,18.45-9.47,24.97,0,0-.93,13.05,1.86,12.11,0,0,5.59,1.86.93,11.18l-16.77-.93-13.98-3.73s-10.25-11.18-1.86-17.71c0,0,4.66,2.8-.93-10.25,0,0-.93-13.98,7.46-19.57,0,0,1.24-12.72-7.3-17.54,0,0-17.86-15.07-13.2-31.85,0,0,35.41-44.73,62.44-11.18Z"/>
    <path class="cls-14" d="M1881.44,843.86s-7.46-7.46-11.18-6.52c0,0-1.86,0-2.8,1.86,0,0-8.39-1.86-10.25,3.73,0,0,8.39,7.14,12.11,4.04v-4.46s10.25,5.09,12.11,1.36Z"/>
    <path class="cls-14" d="M1846.02,844.64s8.4-.78,8.4,3.88l-4.2,3.42s4.45,4.66,1.99,7.61c0,0-4.78,1.32-13.4-3.46,0,0,.25,8.28-7.45-.58,0,0-13.52,7.66-11.54-3.86,0,0,4.77-1.27,6.17,1.53,0,0,4.19,0,5.13.93,0,0,4.04-3.42,7.2-.16,0,0,4.6-4.48,8.65-3.57,0,0-2.61-5.02-.94-5.74Z"/>
    <path class="cls-14" d="M1781.96,821.38s5.36-.4,6.66,3.95c0,0,9.99,3.83,9.27,12.01l-13.31.36s-3.93,4.5-11.34,0l-7.51-4.76s1.46-4.45,9.95-2.41l3.62,1.11s.13-5.78,5.27-5.35c0,0-1.76-4.05-2.61-4.92Z"/>
    <path class="cls-14" d="M1725.98,841.84c.03-.41,12.47-.62,16.62,5.39,0,0,1.92,3.83-4.66,4.71h-7.2s5.59,6.06-2.9,6.32c0,0-7.88.75-14.35-5.86,0,0-5.02,7.1-12.78,6.48,0,0-7.06-.56-4.18-10.82,0,0,6.71-4.3,16.65,2.53,0,0,7.25-7.66,15.59.05,0,0-3.21-3.16-2.8-8.8Z"/>
    <path class="cls-27" d="M1890.61,752.9s-5.07-8.07-7.45-2.79c0,0-1.97-6.73-5.59-3.62,0,0-3.31,1.35-1.55,11.7l7.14-1.45s5.54-3.17,7.87-4"/>
    <path class="cls-27" d="M1872.37,753.21s2.39-9.22-4.23-14.08c0,0-6.52-4.45-13.87,4.14,0,0,10.74,10.98,18.11,9.94Z"/>
    <path class="cls-27" d="M1847.64,738.71l8.36-5.89s1.38-16.37-8.36-23c0,0-11.7-2.38-16.57,17.91l16.57,10.98Z"/>
    <path class="cls-27" d="M1823.41,719.25s17.5-13.05,8.49-31.89l-7.25-13.05s-2.28-8.9-5.8-8.28c0,0-16.88,9.84-21.43,19.26,0,0-2.17,12.63.41,19.67,0,0,16.67,4.14,25.57,14.29Z"/>
    <path class="cls-27" d="M1781.16,697.92s7.66-9.22,4.87-29.3c0,0-18.64-24.33-30.39-27.65,0,0-23.56,27.44-20.76,42.25l6.83,13.87,39.45.83Z"/>
    <path class="cls-27" d="M1727.32,699.16s3.83-12.94-7.77-20.29l-24.44-11.49s-4.35-2.07-5.38,2.07l-4.45,33.55s-.72,3.21,3.62,6.01c0,0,7.66,4.45,12.22,4.35,0,0,12.84-12.11,26.2-14.19Z"/>
    <path class="cls-27" d="M1684.04,728.46s-2.8-19.16-8.59-19.67l-22.88-5.07.62,25.16s.38,4.56,5.38,6.73l9.73,4.97,15.74-12.11Z"/>
    <path class="cls-27" d="M1645.94,738.09l-.93,16.98-12.74,4.14-14.5-8.59s.62-27.96,10.98-22.68l17.19,10.15Z"/>
    <path class="cls-27" d="M1869.69,751.92l8.79.35-1.34-9.72s-1.32-5.98-5.9-3.42l-5.59,3.42,4.04,9.38Z"/>
  </g>
  <g>
    <path class="cls-21" d="M2107.28,653.96l-4.76-4.52-24.97-4.42s15.48,9.93,13.81,12.67l9.89,3.5,6.03-7.24Z"/>
    <path class="cls-17" d="M2108.89,694.77h0l-2.34-8.96-11.4,8.96c.64.04,1.03.03,1.03.03,1.63-1.68,8.25-.83,12.71-.02Z"/>
    <path class="cls-38" d="M2089.9,699.63l2.41-2.63s-1.15.89-2.41,2.63Z"/>
    <path class="cls-38" d="M2082.42,682.81l-6.92-1.01c-2.49,7.65-1.82,15.82,4.39,24,0,0,4.67-4.9,12.4-8.8l2.85-2.24c-3.11-.19-12.25-1.61-12.73-11.95Z"/>
    <path class="cls-38" d="M2113.09,695.63s-1.79-.43-4.21-.86c0,0-6.9,13.49-12.75,11.67,0,0,3.96,6.99,14.37,9.1l2.53-8.96s.02-8.65.06-10.95Z"/>
    <path class="cls-39" d="M2108.89,694.77c-4.46-.81-11.07-1.66-12.71.02,0,0-.39.01-1.03-.03l-2.85,2.24-2.41,2.63c-1.18,1.62-2.45,3.98-2.99,7.08,0,0,6.89.89,9.22-.27,5.86,1.81,12.75-11.67,12.75-11.67Z"/>
    <path class="cls-3" d="M2327.52,675.11c.81-.62,11.11-3.72,11.11-3.72,0,0,22.67,7.36,19.46,49.2,0,0-3.1,35.3.09,44.46,0,0,8.68,17.39-1.68,13.02,0,0-14.32.29-29.22-29.36l10.49-34.39-10.24-39.21Z"/>
    <g>
      <path class="cls-38" d="M2147.59,793.24s-3.82,2.34-5.88,6.49c0,0,8.86.46,8.93-.99.07-1.45,2.49-3.32,2.49-3.32l-5.55-2.17Z"/>
      <path class="cls-38" d="M2157.53,795.25l-4.13,3.15s-2.34,1.84-2.9,6.14l9.7-1.78,1.35-4.8-4.02-2.71Z"/>
      <polygon class="cls-38" points="2165.06 796.22 2163.1 801.73 2162.39 807.25 2171.03 803.55 2170.9 799.87 2165.06 796.22"/>
      <path class="cls-38" d="M2175.73,795.41c-.09.72-3.77,7.39-3.77,7.39,0,0-1.13,3.8-.72,5.59,0,0,4.45-.11,5.18-3.54l-.68-9.44Z"/>
      <path class="cls-38" d="M2184.12,798.68s-3.31,2.49-3.49,3.92l8.6,1.11,2.43-1.87-7.54-3.16Z"/>
      <path class="cls-38" d="M2186.09,806.36s-4.14,2.97-3.08,6.02c0,0,4.41.72,6.87-1.95l-3.8-4.06Z"/>
      <path class="cls-38" d="M2196.23,811.57l-2.25,1.8s-2.17,4.18-.21,5.9c0,0,5.1-.69,7.05-4.14l.33-2.2-4.92-1.36Z"/>
      <path class="cls-38" d="M2211.37,812.8l-.62,3.1s-.31,4.06,2.47,5.15c0,0,3.63.11,5.02-5l-1.51-2.85-5.35-.41Z"/>
      <path class="cls-38" d="M2221.87,810.51l-.86,3.47s.12,2.26,1.55,2.44c0,0,3.78-.67,2.09-4.68l-1.01-2.46-1.78,1.23Z"/>
      <path class="cls-38" d="M2287.6,803.7l-3.87,2.68s-4.72,3.62-.85,6.61c0,0,8.97,2.92,11.33-4.06l.26-4.34-6.87-.89Z"/>
      <path class="cls-38" d="M2298.44,804.37c-.72-.09-4.23,4.55-4.23,4.55,0,0-2.17,5.55,1.13,8.16,0,0,8.6,1.11,11.41-6.54l.2-4.35-8.51-1.83Z"/>
      <path class="cls-38" d="M2312.34,803.98l-5.58,6.57,6.25,5.18s1.16,2.34,8.81-6.15l-.07-5.11-9.41-.49Z"/>
    </g>
    <path class="cls-3" d="M2163.52,716.6l-3.32,9.41s.78,14.31,6.93,23.12c0,0-9.16,25.78-7.68,36.9,0,0,.79,5.2-11.86,7.21,0,0-.65,5.02,4.37,5.66l3.05-1.06s5.86-.22,5.19,4.92c0,0,10.04-4.41,10.83.79,0,0,1.99-2.9,5.38,1.3,0,0,5.21-4.31,5.58-7.17,0,0,8.25-1.85,6.59-11.54,0,0,10.22-2.96,8.1-30.24l-10.91-26.96-22.25-12.34Z"/>
    <path class="cls-3" d="M2259.63,749.41v7.06s-2.57,29.77-8.83,27.5c0,0-7.56,7.77-7.95,16.46,0,0-1.46,5.64-8.53,4l-13.06-6.06,10.22-22.73,6.17-19.61,21.99-6.63Z"/>
    <path class="cls-30" d="M2139.59,710.01s15.71-.31,20.6,15.99c0,0,33.89,51.37,93.22,32.07,0,0,37.06-10.52,60.35-7.51,0,0,27.77,3.41,32.11-28,0,0,13.96-38.19-22.32-67.64,0,0-17.27-29.92-80.62-13.32l-126.6,40.24s-5.67,17.88-3.09,23.97l-2.75,9.73s22.61,1.07,29.09-5.53Z"/>
    <path class="cls-21" d="M2071.75,618.77s30.22-2.66,52.18,19.12l-3.82,3.27-5.73,8.61-8.42-2.38s1.11-9.17-8.99-15.37c0,0-18.77-12.42-25.22-13.25Z"/>
    <path class="cls-19" d="M2241.46,641.84h0c-1.25-3.86-2.7-7.65-4.24-11.28h0c4.39-10.46-4.2-9.1-4.2-9.1h0c-2.94-5.93-5.85-11.02-8.04-14.65h0c2.18-10.33-5.39-7.66-5.39-7.66h0c-17.66-17.73-43.26-12.79-47.38-9.73-6.55-5.33-8.48-.36-9.05,3.23-2.69.16-4.98.12-4.98.12-1.05-.34-2.13-.45-3.23-.38h0s-9.23-9.32-8.41,3.58h0c-1.81,1.3-3.55,2.85-5.15,4.45-7.38-1.57-6.91,3.58-5.96,6.81-.43.55-.81,1.06-1.15,1.52-6.46-2.37-6.74,1.85-6.2,4.96-3.21,2.36-5.26,5.5-6.53,8.82-10.4.1-4.88,6.28-1.88,9.04-.36,5.36.46,9.6.46,9.6-36.3,12.19-44.6,40.63-44.6,40.63l5.81,9.61,12.53,4.17,4.55,4.6,14.69-4.54,26.76-6.14c10.47,3.54,8.97-1.76,8.97-1.76-.05-10.94,3.26-8.32,3.26-8.32,3.14-1.78,13.02,17.71,13.02,17.71l1.9-8.75c-.88-9.84,9.8-2.86,9.8-2.86l24.07,11.12c.91.52,1.89.71,2.94.62,10.89,6.75,8.56-5,8.56-5h0c.63-.6,1.26-1.23,1.89-1.9h0c9.04,4.81,7.19-8.83,7.19-8.83h0s0,0,0,0h0c8.23,1.51,5.34-7.83,5.34-7.83,1.14-1.77,2.22-3.51,3.22-5.15,5.88.93,4.79-5.09,4.23-7.24,1.53-2.73,2.44-4.45,2.44-4.45,2.66-1.59,4.19-3.43,5.05-5.17,12.45-5.63-.25-9.85-.25-9.85Z"/>
    <path class="cls-21" d="M2100.86,602.12s37.87,11.45,53.1,34.54c0,0-8.83,11.98-23.42,6.45,0,0-4.44-18.26-19.71-28.88,0,0-11.15-8.62-9.97-12.12Z"/>
    <circle class="cls-14" cx="2117.8" cy="669.2" r="3.61"/>
    <path class="cls-2" d="M2241.21,723.13c-6.73-16.06-24.46-15.11-24.46-15.11-28.82,1.2-25.8,25.96-25.8,25.96,10.89,11.61,11.28,48.09,11.28,48.09.48,13.18-8.21,12.78-8.21,12.78-11.93,2.1-10.15,5.25-10.15,5.25-1.18,3.49,5.36,3.61,5.36,3.61-5.57,3.65-3.61,5.36-3.61,5.36,3.21,3.33,8.79-.32,8.79-.32-2.98,6.17,2.62,6.95,2.62,6.95,8.2,3.3,11.18-6.63,11.18-6.63-1.64,7.07,4.72,8.62,4.72,8.62,7.07,1.64,10.06-4.53,10.06-4.53,5.64,1.46,4.1-10.76,4.1-10.76,8.19-2.95,13.84-41.2,13.84-41.2,5.82-3.25.28-38.07.28-38.07Z"/>
    <path class="cls-2" d="M2327.65,798.27s6.34-15.21-.28-20.44c0,0-2.74-21.28-.1-29.12,1.12-3.32,1.06-7.03.15-10.95,15.26-57.09-41.08-54.12-41.08-54.12,0,0-25.18,9.69-.08,55.76.74,17.29,2.48,33.02,6.24,37.57,0,0-4.97,10.29-1.16,20.25,0,0-5.04,5.18-7.21,10.73,0,0,6.38-4.28,10.66,2.1,0,0,7.91-4.81,12.54,1.62,0,0,5.58-6.57,15.06-.97l5.66-4.37s2.52-2.59-.42-8.07Z"/>
  </g>
  <g>
    <path class="cls-41" d="M2280.57,824.61s-17.54-34.19-13.13-60.45c0,0,.32,37.65,13.13,60.45Z"/>
    <path class="cls-41" d="M2267.44,764.16s-4.95-17.52-.48-26.83c0,0,3.61,18.62.48,26.83Z"/>
    <path class="cls-41" d="M2266.88,768.87s-8.39-12.05-15.13-9.71c0,0,8.53,9.68,15.13,9.71Z"/>
    <path class="cls-41" d="M2250.23,768.98s11.95-2.09,16.51,3.91c0,0-12.55,1.95-16.51-3.91Z"/>
    <path class="cls-41" d="M2247.94,776.68s17.68-1.72,20.66,4.36c0,0-17.2.58-20.66-4.36Z"/>
    <path class="cls-41" d="M2246.83,783.74s16.13-.96,21.57,5.37c5.44,6.33,0,0,0,0,0,0-17.38-.49-21.57-5.37Z"/>
    <path class="cls-41" d="M2247.17,794.18s17.64-4.26,22.35.11c0,0-12.5,3.25-21.97.59"/>
    <path class="cls-41" d="M2249.88,803.34s16.54-6.35,21.08-3.66c0,0-12.53,5.68-21.08,3.66Z"/>
    <path class="cls-41" d="M2254.38,811.59s13.33-10.14,17.81-7.23c0,0-12.78,9.45-17.81,7.23Z"/>
    <path class="cls-41" d="M2264.16,818.67s4.62-11.15,10.01-9.49c0,0-6.52,10.64-10.01,9.49Z"/>
    <path class="cls-41" d="M2267.48,766.02s7.81-11.66,12.63-11.23c0,0-5.87,7.59-12.29,11.86"/>
    <path class="cls-41" d="M2267.91,773.61s7.91-8.84,13.42-9.94c0,0-4.89,6.75-13.42,9.94Z"/>
    <path class="cls-41" d="M2267.99,779.91s12.54-11.04,16.7-10.06c0,0-11.14,11.23-16.7,10.06Z"/>
    <path class="cls-41" d="M2269.53,788.14s10.67-9.73,17.19-12.13c0,0-5.5,9.29-17.19,12.13Z"/>
    <path class="cls-41" d="M2270.47,793.78s12.72-10.24,18.52-10.1c0,0-7.94,11.52-18.52,10.1Z"/>
    <path class="cls-41" d="M2270.96,799.68s16.14-9.94,20.79-6.37c0,0-16.7,7.95-20.79,6.37Z"/>
    <path class="cls-41" d="M2272.18,804.36s13.48-5.44,17.46-3.03c0,0-13.45,8.37-17.46,3.03Z"/>
    <path class="cls-41" d="M2274.17,809.18s9.97-3.51,13.77-.61c0,0-10.54,4.56-13.77.61Z"/>
  </g>
  <g>
    <path class="cls-41" d="M2254.74,817.41s-14.07-12.8-16.6-25.75c0,0,6.69,17.4,16.6,25.75Z"/>
    <path class="cls-41" d="M2238.14,791.66s-5.34-7.26-4.89-12.36c0,0,4.91,8,4.89,12.36Z"/>
    <path class="cls-41" d="M2238.71,793.94s-5.99-4.13-8.7-1.87c0,0,5.64,3,8.7,1.87Z"/>
    <path class="cls-41" d="M2231,796.88s5.18-3.04,8.33-1.06c0,0-5.48,3.09-8.33,1.06Z"/>
    <path class="cls-41" d="M2231.28,800.85s7.9-3.87,10.34-1.57c0,0-7.88,3.26-10.34,1.57Z"/>
    <path class="cls-41" d="M2231.99,804.32s7.31-3.25,10.94-1.26c3.62,1.99,0,0,0,0,0,0-8.14,2.8-10.94,1.26Z"/>
    <path class="cls-41" d="M2233.97,809.1s7.44-5.04,10.38-3.84c0,0-5.23,3.68-10.09,4.09"/>
    <path class="cls-41" d="M2236.81,812.88s6.56-5.82,9.14-5.36c0,0-4.82,4.81-9.14,5.36Z"/>
    <path class="cls-41" d="M2240.33,815.92s4.42-7.02,7-6.45c0,0-4.28,6.6-7,6.45Z"/>
    <path class="cls-41" d="M2246.1,817.51s.2-5.97,2.99-6.14c0,0-1.17,6.07-2.99,6.14Z"/>
    <path class="cls-41" d="M2238.49,792.51s1.59-6.76,3.9-7.4c0,0-1.4,4.54-3.64,7.63"/>
    <path class="cls-41" d="M2240,795.96s2.13-5.47,4.5-6.94c0,0-1.09,3.98-4.5,6.94Z"/>
    <path class="cls-41" d="M2241.14,798.87s3.9-7.3,6-7.57c0,0-3.21,7.15-6,7.57Z"/>
    <path class="cls-41" d="M2243.28,802.42s3.26-6.37,5.86-8.61c0,0-.94,5.26-5.86,8.61Z"/>
    <path class="cls-41" d="M2244.7,804.87s4.12-6.96,6.83-7.9c0,0-1.68,6.72-6.83,7.9Z"/>
    <path class="cls-41" d="M2245.95,807.52s5.76-7.42,8.53-6.56c0,0-6.36,6.59-8.53,6.56Z"/>
    <path class="cls-41" d="M2247.33,809.48s5.3-4.86,7.57-4.44c0,0-4.78,6.22-7.57,4.44Z"/>
    <path class="cls-41" d="M2249.09,811.37s4.01-3.36,6.28-2.68c0,0-4.1,3.95-6.28,2.68Z"/>
  </g>
  <ellipse class="cls-13" cx="902.19" cy="964.71" rx="200.59" ry="28.8"/>
  <g>
    <path class="cls-56" d="M1076.57,881.94c-40.38-29.82-198.8-22.37-198.8-22.37-77.66-11.18-123.05-32.85-123.05-32.85l-20.72,1.28.25.48s19.88,32.33,11.8,52.83l15.53,8.7-11.22-1.86v11.98l26.76,6.04-3.74,3.73,69.58,29.2-57.16-14.91-8.69,9.32-22.41,5.59v9.32l8.11,6.83-13.4,9.46c103.26,20.64,327.14-1.39,327.14-1.39,32.93-36.65,0-81.39,0-81.39Z"/>
    <path class="cls-20" d="M754.72,948.41v-9.32l22.41-5.59,8.69-9.32,57.16,14.91-69.58-29.2,3.74-3.73-26.76-6.04v-11.98l11.22,1.86-15.53-8.7c8.08-20.5-11.8-52.83-11.8-52.83l-.25-.48-7.82.48-18.64,19.91-9.32-1.24-3.73,19.26,18.02,8.7h-18.02v45.97l14.29,1.24-10.56,4.35c3.73,45.35,44.73,36.65,44.73,36.65,2.1.48,4.26.94,6.48,1.39l13.4-9.46-8.11-6.83Z"/>
    <path class="cls-20" d="M947.59,868.18s-28.32-2.4-22.7,13.07c0,0-10.55,7.03,19.69,15.47,0,0,16.87,6.33,21.09-7.73,0,0-5.92-17.7-18.08-20.8Z"/>
  </g>
  <g>
    <path class="cls-32" d="M958.38,943.55c22.39.66,34.16-9.75,34.16-9.75,5-1.42,7.09,1.54,7.95,4.65-2.32,2.63-5.69,4.26-5.69,4.26-18.06,10.54-39.88,3.79-39.88,3.79-33.23,1.94-30.6-13.15-30.6-13.15,7.19,12.35,34.06,10.21,34.06,10.21Z"/>
    <path class="cls-27" d="M962.98,930.43c.53.9,5.11,12.7,5.11,12.7,0,0,2.35,25.19,20.81,29.88,0,0,9.64,5.59-10.54,9.86,0,0-19.14,10.06-21.51-8.79,0,0-4.31-24.16,1.53-30.52l4.6-13.12Z"/>
    <path class="cls-53" d="M946.41,915.61c9.25-17.11,16.3-16.7,16.3-16.7,17.38.55,24.89,22.15,25.07,23.12l8.59,3.45c8.2,5.1,6.93,9.78,4.12,12.97-.86-3.11-2.95-6.06-7.95-4.65,0,0-11.77,10.41-34.16,9.75,0,0-26.87,2.14-34.06-10.21.43-14.37,22.1-17.74,22.1-17.74Z"/>
    <ellipse class="cls-21" cx="954.03" cy="932.03" rx="7.41" ry="5.76" transform="translate(-148.89 182.08) rotate(-10.12)"/>
    <circle class="cls-21" cx="965.65" cy="910.17" r="2.14"/>
    <ellipse class="cls-21" cx="967.61" cy="921.14" rx="5.27" ry="3.95" transform="translate(-146.77 184.3) rotate(-10.12)"/>
    <ellipse class="cls-21" cx="941.62" cy="921.77" rx="3.76" ry="2.82" transform="translate(-147.28 179.74) rotate(-10.12)"/>
    <ellipse class="cls-21" cx="981.57" cy="930.96" rx="6.79" ry="3.79" transform="translate(-148.27 186.91) rotate(-10.12)"/>
  </g>
  <g>
    <path class="cls-32" d="M1034.46,957.23c-15.64.46-23.86-6.81-23.86-6.81-3.49-.99-4.95,1.07-5.55,3.25,1.62,1.84,3.98,2.98,3.98,2.98,12.62,7.36,27.85,2.65,27.85,2.65,23.21,1.36,21.38-9.19,21.38-9.19-5.02,8.62-23.79,7.13-23.79,7.13Z"/>
    <path class="cls-27" d="M1031.25,948.07c-.37.63-3.57,8.87-3.57,8.87,0,0-1.64,17.6-14.53,20.87,0,0-6.73,3.91,7.36,6.89,0,0,13.37,7.03,15.03-6.14,0,0,3.01-16.88-1.07-21.32l-3.21-9.16Z"/>
    <path class="cls-53" d="M1042.82,937.71c-6.46-11.95-11.39-11.67-11.39-11.67-12.14.39-17.39,15.47-17.51,16.15l-6,2.41c-5.73,3.56-4.84,6.83-2.87,9.06.6-2.17,2.06-4.24,5.55-3.25,0,0,8.22,7.27,23.86,6.81,0,0,18.77,1.49,23.79-7.13-.3-10.04-15.44-12.39-15.44-12.39Z"/>
    <ellipse class="cls-21" cx="1037.49" cy="949.18" rx="4.02" ry="5.17" transform="translate(-79.18 1803.8) rotate(-79.88)"/>
    <circle class="cls-21" cx="1029.38" cy="933.91" r="1.49"/>
    <ellipse class="cls-21" cx="1028.01" cy="941.58" rx="2.76" ry="3.68" transform="translate(-79.52 1788.2) rotate(-79.88)"/>
    <ellipse class="cls-21" cx="1046.17" cy="942.02" rx="1.97" ry="2.63" transform="translate(-64.98 1806.43) rotate(-79.88)"/>
    <ellipse class="cls-21" cx="1018.26" cy="948.44" rx="2.64" ry="4.74" transform="translate(-94.3 1784.25) rotate(-79.88)"/>
  </g>
  <rect class="cls-44" x="1033.29" y="815.85" width="450" height="100" rx="8" ry="8"/>
  <rect class="cls-40" x="1024.29" y="806.85" width="450" height="100" rx="8" ry="8"/>
  <g>
    <path class="cls-21" d="M1190.6,874.91v-5.06h13.06v-13.06h-13.06v-18h14.44v5.06h-9.12v7.81h13v23.25h-18.31Z"/>
    <path class="cls-21" d="M1227.16,843.85v31.06h-5.31v-31.06h-6.5v-5.06h18.38v5.06h-6.56Z"/>
    <path class="cls-21" d="M1253.16,874.91v-18.12h-7.75v18.12h-5.31v-23.25h3.94v-12.88h14.38v36.12h-5.25ZM1253.16,843.85h-3.69v7.81h3.69v-7.81Z"/>
    <path class="cls-21" d="M1277.91,874.91v-18.12h-7.75v18.12h-5.31v-36.12h14.44v12.88h3.88v23.25h-5.25ZM1273.85,843.85h-3.69v7.81h3.69v-7.81Z"/>
    <path class="cls-21" d="M1301.41,843.85v31.06h-5.31v-31.06h-6.5v-5.06h18.38v5.06h-6.56Z"/>
  </g>
  <g>
    <g>
      <path class="cls-29" d="M516.05,1246.04l1.74,25.5s6.67,19.35,43.12,30.57c0,0,30.84,11.21,39.25,28.03,0,0-3.42-49.46-36.75-89.91l-33.33-12.42-14.02,18.22Z"/>
      <path class="cls-29" d="M305.79,1272.67l-11.21,23.87s8.41,43.41-7.01,44.82c0,0,26.63-4.05,43.45-39.17l-6.15-11.29-19.08-18.22Z"/>
      <path class="cls-28" d="M773.97,936.26c-29.44-2.8-77.1,29.44-77.1,29.44-53.27,36.44-84.1,130.36-84.1,130.36-32.24,100.92-165.4,148.58-165.4,148.58-36.44,43.45-262.12,11.21-262.12,11.21-79.9-2.8-105.13,35.04-105.13,35.04,0,0,46.26-33.64,109.33-19.62,0,0,203.25,64.48,293.66,19.62,0,0,129.66-63.08,152.09-140.17,0,0,11.21-22.43,16.82-64.48,0,0,14.02-113.54,135.97-134.57-8.41-4.21-14.02-15.42-14.02-15.42Z"/>
      <path class="cls-29" d="M834.24,915.23s-23.83-22.43-57.47-11.21c0,0-116.34,32.24-161.2,142.98,0,0-35.04,65.88-98.12,70.09,0,0-81.92,6.18-87.92,5.89,0,0-102.72-12.9-171.4,65.6,0,0-32.24,32.24-54.67,30.84,0,0-86.91,7.01-123.35,71.49,0,0,25.23-37.85,105.13-35.04,0,0,19.89,2.84,48.81,5.7-26.88,1.5-47.49,45.21-47.49,45.21-15.5,24.28-27.96,28.99-27.96,28.99,72.85,1.4,112.82-70.93,112.86-71.01,32.74,2.33,69.84,3.67,101.87,1.57-22.15,25.87-24.1,72.24-24.1,72.24,0,7.01-11.21,32.24-11.21,32.24,100.92-28.03,109.33-126.16,109.33-126.16,0,0,133.16-47.66,165.4-148.58,0,0,30.84-93.92,84.1-130.36,0,0,47.66-32.24,77.1-29.44,0,0,5.61,11.21,14.02,15.42,0,0,19.62,8.41,33.64,11.21,0,0,40.65,19.62,42.05,15.42,0,0-42.05-30.84-47.66-39.25,0,0,42.05,4.21,60.27,15.42,0,0,19.62-14.02-42.05-39.25Z"/>
      <circle class="cls-14" cx="821.87" cy="923.4" r="3.26"/>
    </g>
    <g class="cls-48">
      <path class="cls-49" d="M963.66,1151.72S323.2,1245.42,1.48,1211.69l-1.48.87v-36.65s1.48-.26,1.48-.26c206.07,23.93,551.51-15.83,551.51-15.83,754.1-116.13,1257.7-59.85,1288.34-56.23v13.23c-27.24-1.26-436.52-19-877.67,34.89Z"/>
      <path class="cls-43" d="M1.48,1333.46c419.56-.91,772.24-88.68,772.24-88.68,624.38-124.61,1040.21-102.12,1067.61-100.46v255.68H0v-66.32s1.48-.22,1.48-.22Z"/>
      <path class="cls-9" d="M773.72,1244.78S421.05,1332.55,1.48,1333.46l-1.48.22v-121.13s1.48-.87,1.48-.87c321.71,33.72,962.18-59.97,962.18-59.97,441.15-53.89,850.44-36.15,877.67-34.89v27.49c-27.39-1.66-443.23-24.15-1067.61,100.46Z"/>
    </g>
    <g>
      <ellipse class="cls-37" cx="1133.69" cy="1124.09" rx="14.5" ry="7.66"/>
      <ellipse class="cls-37" cx="1090.19" cy="1129.9" rx="7" ry="3.4"/>
      <ellipse class="cls-37" cx="1127.19" cy="1149.23" rx="17" ry="8.62"/>
      <ellipse class="cls-37" cx="1183" cy="1133.66" rx="12.81" ry="5.87"/>
      <ellipse class="cls-37" cx="1015.19" cy="1167.03" rx="24" ry="13.41"/>
      <ellipse class="cls-37" cx="1006.19" cy="1130.72" rx="15" ry="2.93"/>
      <ellipse class="cls-37" cx="923.19" cy="1182.81" rx="21" ry="11.31"/>
      <ellipse class="cls-37" cx="952.69" cy="1160.77" rx="8.5" ry="5.19"/>
      <ellipse class="cls-37" cx="984.19" cy="1146.11" rx="7" ry="3.61"/>
    </g>
  </g>
  <g>
    <path class="cls-50" d="M2417.01,985.19s-55.1-30.12-80.31-13.93c0,0-38.79-8.31,9.12-19.54,0,0,28.74-14.29,74.57,26.22,0,0-57.51-31.25-45.83-40.51,0,0,1.29-18.53,53.16,24.81,0,0-26.34-25.53-14.02-33.02,0,0,15.46-23.68,24.57,26.18,0,0-21.97-70.58,20.39-99.37,0,0,25.57,1.63-6.47,35.24,0,0-22.7,48.26-3.93,58.49,0,0-2.04-80.76,38.12-81.7,0,0,16-12.22-.91,24.03,0,0-32.1,45.8-14.32,53.87l2.08,44.88-56.22-5.64Z"/>
    <g>
      <path class="cls-56" d="M1865.37,1040.56c29.85-30.7,90.76-48.36,90.76-48.36-20.6-2.49-44.4-.77-71.21,8.25,0,0-82.68,48.82-113.9,36.88,0,0-68.99,3.1-68.96,57.01,0,0-63.02,34.86-62.91,61.01l51.52,6.22c10.11-83.73,174.71-121.02,174.71-121.02Z"/>
      <path class="cls-20" d="M1956.13,992.21s-60.92,17.66-90.76,48.36c0,0-164.6,37.3-174.71,121.02l223.8,27.03,136.59-143.59s-33.12-45.35-94.93-52.82Z"/>
    </g>
    <path class="cls-52" d="M2563.82,949.46s-794.45,80.1-1230.02,386.2c0,0-229.49,28.61-426.2,65.8h1656.22s0-452,0-452Z"/>
    <g>
      <path class="cls-41" d="M2004.02,1085.33s2.39-94.43,42.81-145.94c0,0-43.64,81.65-42.81,145.94Z"/>
      <path class="cls-41" d="M2046.83,939.38s9.94-43.65,30.55-58.49c0,0-14.11,44.43-30.55,58.49Z"/>
      <path class="cls-41" d="M2040.09,948.9s-3.92-35.89-21.23-38.76c0,0,7.02,30.92,21.23,38.76Z"/>
      <path class="cls-41" d="M2004.01,929.52s28.24,9.56,31.03,27.87c0,0-29.39-10.57-31.03-27.87Z"/>
      <path class="cls-41" d="M1990,943.45s40.19,17.11,39.47,33.74c0,0-37.82-19-39.47-33.74Z"/>
      <path class="cls-41" d="M1979.29,957.38s35.95,16.93,40.23,36.99c4.28,20.06,0,0,0,0,0,0-36.93-21.5-40.23-36.99Z"/>
      <path class="cls-41" d="M1967.75,980.34s43.08,11.57,48.12,26.54c0,0-30.81-7.69-48.12-24.59"/>
      <path class="cls-41" d="M1962.8,1003.29s43.16,5.76,49.81,16.9c0,0-33.74-2.5-49.81-16.9Z"/>
      <path class="cls-41" d="M1962.8,1026.39s40.71-6.18,46.94,5.36c0,0-38.7,5.36-46.94-5.36Z"/>
      <path class="cls-41" d="M1975.58,1053.18s23.1-18.63,32.78-8.7c0,0-26.59,15.29-32.78,8.7Z"/>
      <path class="cls-41" d="M2044.74,943.45s30.58-15.98,40.47-9.39c0,0-21.6,9.48-40.47,11.13"/>
      <path class="cls-41" d="M2036.72,960.32s27.48-9.77,40.66-5.65c0,0-18.49,8.83-40.66,5.65Z"/>
      <path class="cls-41" d="M2029.48,974.04s40.07-9.07,47.9-2.06c0,0-37.27,11.13-47.9,2.06Z"/>
      <path class="cls-41" d="M2023.12,993.61s34.48-8.44,51.38-5.96c0,0-22.8,13.57-51.38,5.96Z"/>
      <path class="cls-41" d="M2018.5,1006.88s39.51-7.14,51.87,0c0,0-30.71,15.53-51.87,0Z"/>
      <path class="cls-41" d="M2012.62,1020.19s46.55-2.46,52.36,10.73c0,0-45.41-2.5-52.36-10.73Z"/>
      <path class="cls-41" d="M2009.74,1031.75s35.49,4.12,41.26,14.01c0,0-38.87,2.23-41.26-14.01Z"/>
      <path class="cls-41" d="M2008.36,1044.48s25.65,4.16,30.44,14.88c0,0-28.12-2.57-30.44-14.88Z"/>
    </g>
    <g>
      <path class="cls-41" d="M2423.61,990.18s-1.35-53.32-24.17-82.4c0,0,24.64,46.1,24.17,82.4Z"/>
      <path class="cls-41" d="M2399.43,907.78s-5.61-24.64-17.25-33.02c0,0,7.97,25.09,17.25,33.02Z"/>
      <path class="cls-41" d="M2403.24,913.15s2.21-20.27,11.99-21.88c0,0-3.96,17.46-11.99,21.88Z"/>
      <path class="cls-41" d="M2423.61,902.21s-15.95,5.4-17.52,15.73c0,0,16.59-5.97,17.52-15.73Z"/>
      <path class="cls-41" d="M2431.52,910.08s-22.69,9.66-22.28,19.05c0,0,21.35-10.73,22.28-19.05Z"/>
      <path class="cls-41" d="M2437.57,917.94s-20.3,9.56-22.71,20.88c-2.42,11.33,0,0,0,0,0,0,20.85-12.14,22.71-20.88Z"/>
      <path class="cls-41" d="M2444.08,930.9s-24.32,6.53-27.17,14.99c0,0,17.4-4.34,27.17-13.89"/>
      <path class="cls-41" d="M2446.88,943.86s-24.37,3.25-28.13,9.54c0,0,19.05-1.41,28.13-9.54Z"/>
      <path class="cls-41" d="M2446.88,956.9s-22.99-3.49-26.5,3.03c0,0,21.85,3.03,26.5-3.03Z"/>
      <path class="cls-41" d="M2439.66,972.03s-13.04-10.52-18.51-4.91c0,0,15.02,8.63,18.51,4.91Z"/>
      <path class="cls-41" d="M2400.61,910.08s-17.27-9.02-22.85-5.3c0,0,12.19,5.35,22.85,6.28"/>
      <path class="cls-41" d="M2405.14,919.6s-15.51-5.52-22.96-3.19c0,0,10.44,4.98,22.96,3.19Z"/>
      <path class="cls-41" d="M2409.23,927.35s-22.62-5.12-27.05-1.16c0,0,21.05,6.28,27.05,1.16Z"/>
      <path class="cls-41" d="M2412.82,938.4s-19.47-4.76-29.01-3.37c0,0,12.88,7.66,29.01,3.37Z"/>
      <path class="cls-41" d="M2415.43,945.89s-22.31-4.03-29.29,0c0,0,17.34,8.77,29.29,0Z"/>
      <path class="cls-41" d="M2418.75,953.41s-26.28-1.39-29.56,6.06c0,0,25.64-1.41,29.56-6.06Z"/>
      <path class="cls-41" d="M2420.37,959.93s-20.04,2.33-23.3,7.91c0,0,21.95,1.26,23.3-7.91Z"/>
      <path class="cls-41" d="M2421.16,967.12s-14.48,2.35-17.19,8.4c0,0,15.88-1.45,17.19-8.4Z"/>
    </g>
    <g>
      <path class="cls-41" d="M1781.55,1150.08s-1.35-53.32-24.17-82.4c0,0,24.64,46.1,24.17,82.4Z"/>
      <path class="cls-41" d="M1757.38,1067.68s-5.61-24.64-17.25-33.02c0,0,7.97,25.09,17.25,33.02Z"/>
      <path class="cls-41" d="M1761.19,1073.05s2.21-20.27,11.99-21.88c0,0-3.96,17.46-11.99,21.88Z"/>
      <path class="cls-41" d="M1781.56,1062.11s-15.95,5.4-17.52,15.73c0,0,16.59-5.97,17.52-15.73Z"/>
      <path class="cls-41" d="M1789.46,1069.98s-22.69,9.66-22.28,19.05c0,0,21.35-10.73,22.28-19.05Z"/>
      <path class="cls-41" d="M1795.51,1077.85s-20.3,9.56-22.71,20.88c-2.42,11.33,0,0,0,0,0,0,20.85-12.14,22.71-20.88Z"/>
      <path class="cls-41" d="M1802.03,1090.8s-24.32,6.53-27.17,14.99c0,0,17.4-4.34,27.17-13.89"/>
      <path class="cls-41" d="M1804.82,1103.76s-24.37,3.25-28.13,9.54c0,0,19.05-1.41,28.13-9.54Z"/>
      <path class="cls-41" d="M1804.82,1116.81s-22.99-3.49-26.5,3.03c0,0,21.85,3.03,26.5-3.03Z"/>
      <path class="cls-41" d="M1797.61,1131.93s-13.04-10.52-18.51-4.91c0,0,15.02,8.63,18.51,4.91Z"/>
      <path class="cls-41" d="M1758.56,1069.98s-17.27-9.02-22.85-5.3c0,0,12.19,5.35,22.85,6.28"/>
      <path class="cls-41" d="M1763.09,1079.5s-15.51-5.52-22.96-3.19c0,0,10.44,4.98,22.96,3.19Z"/>
      <path class="cls-41" d="M1767.17,1087.25s-22.62-5.12-27.05-1.16c0,0,21.05,6.28,27.05,1.16Z"/>
      <path class="cls-41" d="M1770.77,1098.3s-19.47-4.76-29.01-3.37c0,0,12.88,7.66,29.01,3.37Z"/>
      <path class="cls-41" d="M1773.37,1105.79s-22.31-4.03-29.29,0c0,0,17.34,8.77,29.29,0Z"/>
      <path class="cls-41" d="M1776.7,1113.31s-26.28-1.39-29.56,6.06c0,0,25.64-1.41,29.56-6.06Z"/>
      <path class="cls-41" d="M1778.32,1119.83s-20.04,2.33-23.3,7.91c0,0,21.95,1.26,23.3-7.91Z"/>
      <path class="cls-41" d="M1779.1,1127.02s-14.48,2.35-17.19,8.4c0,0,15.88-1.45,17.19-8.4Z"/>
    </g>
    <g>
      <path class="cls-41" d="M1655.71,1174.94s35.27-72.06,22.74-128.01c0,0,3.26,79.98-22.74,128.01Z"/>
      <path class="cls-41" d="M1678.45,1046.93s9.13-37.07-1.76-56.99c0,0-6.05,39.43,1.76,56.99Z"/>
      <path class="cls-41" d="M1680.18,1056.96s17.33-25.34,32.51-20.14c0,0-17.88,20.28-32.51,20.14Z"/>
      <path class="cls-41" d="M1717.11,1057.71s-26.69-4.82-36.17,7.78c0,0,28.02,4.54,36.17-7.78Z"/>
      <path class="cls-41" d="M1722.98,1074.15s-39.37-4.21-45.33,8.61c0,0,38.19,1.78,45.33-8.61Z"/>
      <path class="cls-41" d="M1726.19,1089.19s-35.85-2.55-47.23,10.73c-11.38,13.28,0,0,0,0,0,0,38.45-.48,47.23-10.73Z"/>
      <path class="cls-41" d="M1726.52,1111.36s-39.53-9.61-49.52-.49c0,0,28.05,7.31,48.76,1.95"/>
      <path class="cls-41" d="M1721.49,1130.73s-37.31-14.01-47.1-8.46c0,0,28.37,12.46,47.1,8.46Z"/>
      <path class="cls-41" d="M1712.39,1148.11s-30.62-21.96-40.22-15.92c0,0,29.3,20.48,40.22,15.92Z"/>
      <path class="cls-41" d="M1691.46,1162.84s-11.42-23.84-23.18-20.48c0,0,15.57,22.81,23.18,20.48Z"/>
      <path class="cls-41" d="M1678.55,1050.88s-18.53-25.02-29.16-24.27c0,0,13.8,16.31,28.47,25.58"/>
      <path class="cls-41" d="M1678.42,1066.98s-18.45-19.03-30.79-21.54c0,0,11.54,14.5,30.79,21.54Z"/>
      <path class="cls-41" d="M1678.88,1080.39s-28.96-23.86-38.07-21.91c0,0,25.87,24.22,38.07,21.91Z"/>
      <path class="cls-41" d="M1676.34,1097.81s-24.67-21.01-39.36-26.33c0,0,13.16,19.91,39.36,26.33Z"/>
      <path class="cls-41" d="M1674.86,1109.76s-29.26-22.17-42.11-22.05c0,0,18.81,24.73,42.11,22.05Z"/>
      <path class="cls-41" d="M1674.39,1122.28s-36.82-21.64-46.73-14.19c0,0,37.85,17.42,46.73,14.19Z"/>
      <path class="cls-41" d="M1672.17,1132.19s-30.43-11.99-39.02-7c0,0,30.68,18.2,39.02,7Z"/>
      <path class="cls-41" d="M1668.28,1142.36s-22.46-7.77-30.57-1.75c0,0,23.84,10.02,30.57,1.75Z"/>
    </g>
    <path class="cls-50" d="M1687.75,1198.94s73.33-1.33,74.67-26.67c0,0-12-28-74.67,21.33,0,0,48-30.67,37.33-37.33,0,0-9.33-25.33-44,34.67,0,0,4-40,49.33-62.67,0,0,5.33-44-45.33,22.67l-13.33,28s17.33-61.33,0-54.67c0,0-25.33-14.67-8,54.67,0,0-19.06-84.92-63.53-71.79,0,0-24.63,5.62,10.2,34.46,0,0,48,32,41.33,57.33h36Z"/>
    <ellipse class="cls-10" cx="2197.22" cy="1316.26" rx="131.19" ry="31.19"/>
    <g>
      <path class="cls-60" d="M2110.38,1143.22c-4.16,2.77-20.9,19.11-20.9,19.11,0,0-1.29,30.82,7.03,47.46,0,0,0,37.91,7.24,52.22.34.68.71,1.31,1.08,1.88,8.32,12.48,2.77,23.58,0,30.51l-6.94,12.48,18.72,5.55h18.96l9.48-2.77s5.55-20.81,2.77-30.51c0,0,5.72-53.27-5.46-70.32l-31.99-65.6Z"/>
      <path class="cls-60" d="M2217.18,1218.12l-13.88,9.71s11.69,21.27,19.72,23.81c0,0,11.73,15.03,2.25,30.28,0,0-20.57,19.42-19.19,22.19l21.5,6.24h9.25s20.57-.69,17.8-17.34c0,0,4.16-25.66,24.27-28.78l-8.78-46.12-38.6,2.21-14.34-2.21Z"/>
      <path class="cls-55" d="M2304.57,1205.64c-79.06,20.81-156.73-36.06-156.73-36.06-47.16-24.97-29.13-106.8-29.13-106.8,2.77-88.77-24.97-170.6-24.97-170.6-27.74-70.74-44.38-54.87-44.38-54.87h0c24.7,16.31,45.77,104.8,45.77,104.8,11.1,41.61,0,83.22,0,83.22-24.97,54.09-20.81,73.51-20.81,73.51,0,95.7,79.06,113.74,79.06,113.74l16.64,5.55c40.22,20.81,130.38,9.71,130.38,9.71,49.93,13.87,77.67,8.32,77.67,8.32,19.12.53,40.06-5.45,58.63-13.02,0,0,0,0,0,0-91.17,6.39-132.14-17.49-132.14-17.49Z"/>
      <path class="cls-47" d="M2483.49,1180.67c-40.22,23.58-106.8,15.26-106.8,15.26-58.25-5.55-79.06-70.74-79.06-70.74-23.58-33.29-115.12-58.25-115.12-58.25-23.58-11.1-26.35-48.55-26.35-48.55-15.26-140.09-61.03-203.89-61.03-203.89-20.81-34.68-62.42-37.45-62.42-37.45-15.26-13.87-29.2-9.02-29.2-9.02h-2c-15.26,9.71-1.39,31.9-1.39,31.9,7.63,10.4-7.63,22.89-7.63,22.89-6.94,12.48,6.94,15.26,6.94,15.26,11.1,22.19,38.84-2.77,38.84-2.77,3.74-1.25,7.46-.4,11.1,2h0s16.64-15.87,44.38,54.87c0,0,27.74,81.83,24.97,170.6,0,0-16.64,75.58,23.93,103.63h0s-3.12,21.2,12.14,57.27c0,0,11.56,54.09,5.78,58.25,0,0-12.71,19.42-11.33,29.13l11.1,4.16h22.89l13.18-1.39s5.55,4.16,4.16-27.74c0,0,.45-4.62.22-21.04,0,0,5.51-4.8-2.21-68.86h0c8.33,3.22,17.42,6.2,27.06,8.58,2.41,10.21,6.88,19.92,14.91,25.95l11.34,10.98s4.16,18.03,15.26,24.97c0,0,11.1,12.48-8.32,27.05,0,0-13.04,8.09-10.68,16.18h22.16l12.1,2.54h10.87l7.17-1.39s8.32-6.94,2.77-18.03c0,0-5.55-12.48,0-20.81,0,0,4.16-15.26-5.55-31.9,0,0-2.77-15.26,5.55-24.97,0,0,1.04-4.01,1.9-9.43,4.95,2.65,46.3,23.19,131.63,17.21,0,0,0,0,0,0,29.94-12.21,53.72-28.59,53.72-28.59,15.26-5.55,15.26-18.03,15.26-18.03-1.39-8.32-22.19,4.16-22.19,4.16Z"/>
      <circle class="cls-14" cx="2029.94" cy="813.11" r="2.77"/>
      <path class="cls-14" d="M2004.28,827.67s0-4.16,2.77-2.77"/>
      <path class="cls-39" d="M2028.68,827.69c-1.86-2.02-5.14-.02-5.14-.02-5.19,5.83-11.59,8.41-16.49,9.54h0s9.31,5.02,21.63-9.52Z"/>
      <path class="cls-21" d="M2007.05,837.21h0c-1.65.38-3.13.6-4.34.72l2.95,3c7.63,5.63,24.27-8.63,24.27-8.63,0-2.42-.52-3.81-1.25-4.61-12.33,14.54-21.63,9.52-21.63,9.52Z"/>
      <g>
        <path class="cls-14" d="M2097.9,1306.89s-2.77,0-2.77,6.94h17.03v2.23h14.49l2.62-3.62.62,3.62s12.44.94,14.5-6.2c0,0-12.11-5.75-14.04.5l-2.31,1.14s-8.86-3.22-14.64-1.14c0,0-7.17-7.63-15.49-3.47Z"/>
        <path class="cls-14" d="M2149.22,1319.37s-8.17-8.68,4.24-8.5c0,0,7.01-1.21,9.71,4.34,0,0,11.17-6.94,19.42,0,0,0,8.53-6.63,14.63-1.23,0,0,.7,6.78-10.47,5.4l-4.24-1.39s-9.25,7.31-19.19,1.57l-14.1-.19Z"/>
        <path class="cls-14" d="M2206.09,1304.12s-3.49-1.39-6.6,6.24c0,0-.49,3.11,9.29.52,0,0,1.31,2.95,9.71,1.56,0,0,8.86,2.77,18.34-2.08,0,0-.23-4.56-9.25-4.71,0,0-3.93-5.89-12.02-1.63,0,0-6.7,1.49-9.48.1Z"/>
        <path class="cls-14" d="M2252.71,1303.22l-4.59,6.68-7.01,8.32s.43,6.02,15.3-1.96c0,0,8.93,8.29,25.08-4.01,0,0-4.66,12.67,18.92-1.2,0,0-4.16-5.55-11.1-4.16l-6.7,3.98s-8.04-9-18.01-3.03c0,0-2.72-8.3-11.89-4.63Z"/>
      </g>
    </g>
    <ellipse class="cls-10" cx="1968.27" cy="1095.46" rx="26.73" ry="8.54"/>
    <g>
      <path class="cls-32" d="M1974.56,1044.45c-26.23,5.48-42.28-4.31-42.28-4.31-6.19-.62-8.03,3.3-8.38,7.14,3.29,2.62,7.6,3.82,7.6,3.82,23.49,8.61,47.77-3.92,47.77-3.92,39.54-4.7,33.28-21.93,33.28-21.93-5.87,16.05-37.98,19.18-37.98,19.18Z"/>
      <path class="cls-27" d="M1966.39,1029.96c-.44,1.17-3.36,16.03-3.36,16.03,0,0,2.52,30.17-18.23,39.56,0,0-10.18,8.61,14.49,9.4,0,0,24.67,7.83,23.49-14.88,0,0,0-29.36-8.22-35.63l-8.17-14.49Z"/>
      <path class="cls-53" d="M1982.79,1009.02c-14.49-18.21-22.71-16.25-22.71-16.25-20.36,4.31-24.67,31.32-24.67,32.5l-9.4,5.87c-8.58,7.73-6.11,12.98-2.12,16.15.36-3.84,2.2-7.76,8.38-7.14,0,0,16.05,9.79,42.28,4.31,0,0,32.1-3.13,37.98-19.18-3.52-16.84-29.76-16.25-29.76-16.25Z"/>
      <ellipse class="cls-21" cx="1977.26" cy="1029.96" rx="8.86" ry="6.89"/>
      <circle class="cls-21" cx="1958.98" cy="1006.66" r="2.56"/>
      <ellipse class="cls-21" cx="1958.98" cy="1020" rx="6.3" ry="4.73"/>
      <ellipse class="cls-21" cx="1989.73" cy="1015.27" rx="4.5" ry="3.37"/>
      <ellipse class="cls-21" cx="1944.6" cy="1034.49" rx="8.12" ry="4.53"/>
    </g>
    <ellipse class="cls-10" cx="1648.57" cy="1216.55" rx="32.37" ry="11.28"/>
    <ellipse class="cls-10" cx="1719.65" cy="1236" rx="50.79" ry="17.43"/>
    <g>
      <polygon class="cls-61" points="1679.96 1197.8 1683.11 1209.74 1665.52 1213.69 1655.21 1201.31 1665.18 1194.63 1679.96 1197.8"/>
      <polygon class="cls-42" points="1664.59 1205.28 1665.35 1213.63 1651.44 1209.45 1645.18 1200.02 1650.58 1194.56 1664.59 1205.28"/>
      <path class="cls-54" d="M1650.58,1194.56s22.11-9.73,28.01,0c0,0,8.35,6.57-14,10.71l-14-10.71Z"/>
      <polygon class="cls-57" points="1643.21 1221.98 1665.52 1213.69 1652.64 1197.99 1638.3 1200.02 1638.3 1217.56 1643.21 1221.98"/>
      <path class="cls-61" d="M1616.19,1197.99s-7.86,4.83,0,15.64l16.21,4.91,10.81,3.44,1.97-8.35-6.88-9.83-22.11-5.81Z"/>
      <path class="cls-54" d="M1622.09,1190.54l-5.9,7.45,14.74,10.24,14.25,5.4,8.84-5.9s2.95-13.76-13.76-20.64c0,0-16.7-2.95-18.18,3.44Z"/>
    </g>
    <g>
      <polygon class="cls-61" points="1676.11 1217.93 1671.44 1235.64 1697.51 1241.5 1712.79 1223.14 1698.01 1213.24 1676.11 1217.93"/>
      <polygon class="cls-42" points="1698.9 1229.02 1697.76 1241.4 1718.38 1235.21 1727.66 1221.23 1719.65 1213.14 1698.9 1229.02"/>
      <path class="cls-54" d="M1719.65,1213.14s-32.77-14.42-41.51,0c0,0-12.38,9.74,20.75,15.88l20.75-15.88Z"/>
      <polygon class="cls-57" points="1730.57 1253.78 1697.51 1241.5 1716.6 1218.22 1737.86 1221.23 1737.86 1247.23 1730.57 1253.78"/>
      <path class="cls-61" d="M1770.63,1218.22s11.65,7.16,0,23.18l-24.03,7.28-16.02,5.1-2.91-12.38,10.2-14.56,32.77-8.62Z"/>
      <path class="cls-54" d="M1761.89,1207.17l8.74,11.04-21.85,15.17-21.12,8.01-13.11-8.74s-4.37-20.39,20.39-30.59c0,0,24.76-4.37,26.95,5.1Z"/>
    </g>
  </g>
  <ellipse class="cls-13" cx="1952.42" cy="894.84" rx="64.32" ry="16.92"/>
  <g>
    <polygon class="cls-61" points="2007.11 867.56 2012.66 888.59 1981.69 895.55 1963.55 873.75 1981.1 861.99 2007.11 867.56"/>
    <polygon class="cls-42" points="1980.05 880.73 1981.4 895.43 1956.91 888.08 1945.89 871.48 1955.4 861.87 1980.05 880.73"/>
    <path class="cls-54" d="M1955.4,861.87s38.92-17.13,49.3,0c0,0,14.7,11.57-24.65,18.86l-24.65-18.86Z"/>
    <polygon class="cls-57" points="1942.43 910.14 1981.69 895.55 1959.02 867.9 1933.78 871.48 1933.78 902.35 1942.43 910.14"/>
    <path class="cls-61" d="M1894.85,867.9s-13.84,8.51,0,27.53l28.54,8.65,19.03,6.05,3.46-14.7-12.11-17.3-38.92-10.24Z"/>
    <path class="cls-54" d="M1905.23,854.78l-10.38,13.12,25.95,18.02,25.08,9.51,15.57-10.38s5.19-24.22-24.22-36.33c0,0-29.41-5.19-32,6.05Z"/>
  </g>
  <ellipse class="cls-13" cx="2271.16" cy="829.53" rx="39.16" ry="9.84"/>
  <g>
    <polygon class="cls-61" points="2236.57 810.56 2232.4 823.57 2251.61 828.94 2263.7 815.85 2253.07 807.9 2236.57 810.56"/>
    <polygon class="cls-42" points="2253.12 819.7 2251.8 828.88 2267.4 825.06 2274.86 815 2269.2 808.66 2253.12 819.7"/>
    <path class="cls-54" d="M2269.2,808.66s-23.86-12.01-30.93-1.6c0,0-9.6,6.78,14.85,12.63l16.08-11.03Z"/>
    <polygon class="cls-57" points="2275.77 839.37 2251.61 828.94 2266.73 812.33 2282.45 815.4 2281.45 834.76 2275.77 839.37"/>
    <path class="cls-61" d="M2306.99,814.41s8.41,5.79-.89,17.28l-18.19,4.5-12.14,3.18-1.69-9.34,8.16-10.46,24.75-5.16Z"/>
    <path class="cls-54" d="M2300.9,805.84l6.09,8.57-16.86,10.46-16.05,5.16-9.43-7.02s-2.47-15.36,16.37-22.01c0,0,18.62-2.3,19.88,4.84Z"/>
  </g>
  <ellipse class="cls-13" cx="2063.9" cy="921.58" rx="25.1" ry="8.42"/>
  <g>
    <rect class="cls-22" x="2381.26" y="24.14" width="158.93" height="49.7" rx="4" ry="4"/>
    <g>
      <path class="cls-7" d="M2420.63,37.67c-.24,0-.46.08-.66.21l-7.23,4.82h-4.65c-.69,0-1.26.56-1.26,1.26v10.07c0,.69.56,1.26,1.26,1.26h4.65l7.23,4.82c.84.56,1.96-.04,1.96-1.05v-20.13c0-.71-.59-1.28-1.3-1.26ZM2430.76,39.01c-.69-.03-1.28.51-1.31,1.21-.02.47.23.92.65,1.15,2.73,1.57,4.4,4.48,4.4,7.63s-1.68,6.05-4.4,7.63c-.6.35-.81,1.12-.46,1.72.35.6,1.12.81,1.72.46,3.5-2.02,5.66-5.76,5.66-9.81s-2.16-7.79-5.66-9.81c-.18-.11-.39-.17-.6-.18ZM2419.41,41.28v15.43l-5.57-3.75c-.19-.12-.43-.19-.72-.19h-3.77v-7.55h3.77c.29,0,.53-.06.72-.18l5.58-3.76ZM2427.62,42.28s-.08,0-.13,0c-.69.04-1.22.64-1.18,1.33.03.43.27.81.64,1.02,1.56.9,2.52,2.56,2.52,4.36s-.96,3.46-2.52,4.36c-.6.35-.81,1.12-.46,1.72.35.6,1.12.81,1.72.46,2.33-1.35,3.77-3.84,3.77-6.54s-1.44-5.19-3.77-6.54c-.18-.11-.39-.17-.6-.18h0ZM2424.47,45.55c-.69-.03-1.28.51-1.31,1.21-.02.47.23.92.65,1.15.39.23.63.64.63,1.09s-.24.87-.63,1.09c-.62.32-.85,1.08-.53,1.7.32.62,1.08.85,1.7.53.03-.02.06-.03.09-.05,1.17-.67,1.89-1.92,1.89-3.27s-.72-2.6-1.89-3.27c-.18-.11-.39-.17-.6-.18Z"/>
      <g>
        <path class="cls-14" d="M2450.24,56.98v-2.87h7.41v-3.23h-7.41v-8.16h8.19v2.87h-5.18v2.31h7.38v9.08h-10.39Z"/>
        <path class="cls-14" d="M2464.25,56.98v-14.26h10.39v14.26h-10.39ZM2471.66,54.11v-8.51h-4.4v8.51h4.4Z"/>
        <path class="cls-14" d="M2478.26,56.98v-14.26h3.01v11.38h4.4v-11.38h2.98v14.26h-10.39Z"/>
        <path class="cls-14" d="M2499.68,56.98v-11.38h-4.4v11.38h-3.01v-14.26h10.39v14.26h-2.98Z"/>
        <path class="cls-14" d="M2506.27,56.98v-14.26h7.41v-6.24h2.98v20.5h-10.39ZM2513.68,45.6h-4.4v8.51h4.4v-8.51Z"/>
      </g>
    </g>
  </g>
</svg>