<svg width="16" height="17" viewBox="0 0 16 17" fill="none" xmlns="http://www.w3.org/2000/svg">
<g clip-path="url(#clip0_28_1074)">
<path d="M5 3.5C5 2.70435 5.31607 1.94129 5.87868 1.37868C6.44129 0.81607 7.20435 0.5 8 0.5C8.79565 0.5 9.55871 0.81607 10.1213 1.37868C10.6839 1.94129 11 2.70435 11 3.5V8.5C11 9.29565 10.6839 10.0587 10.1213 10.6213C9.55871 11.1839 8.79565 11.5 8 11.5C7.20435 11.5 6.44129 11.1839 5.87868 10.6213C5.31607 10.0587 5 9.29565 5 8.5V3.5Z" fill="#8F8E8E"/>
<path d="M3.5 7C3.63261 7 3.75979 7.05268 3.85355 7.14645C3.94732 7.24021 4 7.36739 4 7.5V8.5C4 9.56087 4.42143 10.5783 5.17157 11.3284C5.92172 12.0786 6.93913 12.5 8 12.5C9.06087 12.5 10.0783 12.0786 10.8284 11.3284C11.5786 10.5783 12 9.56087 12 8.5V7.5C12 7.36739 12.0527 7.24021 12.1464 7.14645C12.2402 7.05268 12.3674 7 12.5 7C12.6326 7 12.7598 7.05268 12.8536 7.14645C12.9473 7.24021 13 7.36739 13 7.5V8.5C13 9.73953 12.5396 10.9349 11.7081 11.8541C10.8766 12.7734 9.73332 13.351 8.5 13.475V15.5H11.5C11.6326 15.5 11.7598 15.5527 11.8536 15.6464C11.9473 15.7402 12 15.8674 12 16C12 16.1326 11.9473 16.2598 11.8536 16.3536C11.7598 16.4473 11.6326 16.5 11.5 16.5H4.5C4.36739 16.5 4.24021 16.4473 4.14645 16.3536C4.05268 16.2598 4 16.1326 4 16C4 15.8674 4.05268 15.7402 4.14645 15.6464C4.24021 15.5527 4.36739 15.5 4.5 15.5H7.5V13.475C6.26668 13.351 5.12337 12.7734 4.29188 11.8541C3.46038 10.9349 2.99998 9.73953 3 8.5V7.5C3 7.36739 3.05268 7.24021 3.14645 7.14645C3.24021 7.05268 3.36739 7 3.5 7Z" fill="#8F8E8E"/>
</g>
<defs>
<clipPath id="clip0_28_1074">
<rect width="16" height="16" fill="white" transform="translate(0 0.5)"/>
</clipPath>
</defs>
</svg>
