<svg width="25" height="24" viewBox="0 0 25 24" fill="none" xmlns="http://www.w3.org/2000/svg">
<g clip-path="url(#clip0_38_225)">
<path fill-rule="evenodd" clip-rule="evenodd" d="M0.5 5.25C0.5 5.05109 0.579018 4.86032 0.71967 4.71967C0.860322 4.57902 1.05109 4.5 1.25 4.5H2C5.303 4.5 7.7405 6.36 9.311 8.127C10.046 8.955 10.6085 9.78 11 10.425C11.39 9.78 11.954 8.955 12.689 8.127C14.2595 6.36 16.697 4.5 20 4.5V6C17.303 6 15.2405 7.515 13.811 9.123C13.038 9.9985 12.3742 10.9646 11.834 12C12.3737 13.0354 13.0371 14.0014 13.8095 14.877C15.242 16.485 17.306 18 20 18V19.5C16.697 19.5 14.2595 17.64 12.689 15.873C12.0583 15.1592 11.493 14.3901 11 13.575C10.61 14.22 10.046 15.045 9.311 15.873C7.7405 17.64 5.303 19.5 2 19.5H1.25C1.05109 19.5 0.860322 19.421 0.71967 19.2803C0.579018 19.1397 0.5 18.9489 0.5 18.75C0.5 18.5511 0.579018 18.3603 0.71967 18.2197C0.860322 18.079 1.05109 18 1.25 18H2C4.697 18 6.7595 16.485 8.189 14.877C8.96195 14.0015 9.6258 13.0354 10.166 12C9.62627 10.9646 8.96292 9.99858 8.1905 9.123C6.758 7.515 4.694 6 2 6H1.25C1.05109 6 0.860322 5.92098 0.71967 5.78033C0.579018 5.63968 0.5 5.44891 0.5 5.25Z" fill="#FB0808"/>
<path d="M20 8.199V2.301C20 2.22974 20.0204 2.15997 20.0586 2.09985C20.0969 2.03973 20.1514 1.99175 20.216 1.96153C20.2805 1.93131 20.3523 1.92011 20.423 1.92922C20.4936 1.93834 20.5602 1.9674 20.615 2.013L24.155 4.962C24.335 5.112 24.335 5.388 24.155 5.538L20.615 8.487C20.5602 8.5326 20.4936 8.56166 20.423 8.57078C20.3523 8.57989 20.2805 8.56868 20.216 8.53847C20.1514 8.50825 20.0969 8.46027 20.0586 8.40015C20.0204 8.34003 20 8.27025 20 8.199ZM20 21.699V15.801C20 15.7297 20.0204 15.66 20.0586 15.5999C20.0969 15.5397 20.1514 15.4918 20.216 15.4615C20.2805 15.4313 20.3523 15.4201 20.423 15.4292C20.4936 15.4383 20.5602 15.4674 20.615 15.513L24.155 18.462C24.335 18.612 24.335 18.888 24.155 19.038L20.615 21.987C20.5602 22.0326 20.4936 22.0617 20.423 22.0708C20.3523 22.0799 20.2805 22.0687 20.216 22.0385C20.1514 22.0082 20.0969 21.9603 20.0586 21.9001C20.0204 21.84 20 21.7703 20 21.699Z" fill="#FB0808"/>
</g>
<defs>
<clipPath id="clip0_38_225">
<rect width="24" height="24" fill="white" transform="translate(0.5)"/>
</clipPath>
</defs>
</svg>
